STARTFONT 2.1
COMMENT Font grabbed from the X server.
FONT -Wuncon-Siji-Medium-R-Normal--10-100-75-75-C-80-ISO10646-1
SIZE 10 75 75
FONTBOUNDINGBOX 12 13 0 -1
STARTPROPERTIES 23
FONTNAME_REGISTRY ""
FOUNDRY "Wuncon"
FAMILY_NAME "Siji"
WEIGHT_NAME "Medium"
SLANT "R"
SETWIDTH_NAME "Normal"
ADD_STYLE_NAME ""
PIXEL_SIZE 10
POINT_SIZE 100
RESOLUTION_X 75
RESOLUTION_Y 75
SPACING "C"
AVERAGE_WIDTH 80
CHARSET_REGISTRY "ISO10646"
CHARSET_ENCODING "1"
COPYRIGHT "GPLv2"
WEIGHT 10
_GBDFED_INFO "Edited with gbdfed 1.6."
X_HEIGHT 3
QUAD_WIDTH 8
RESOLUTION 103
FONT_ASCENT 11
FONT_DESCENT 1
ENDPROPERTIES
CHARS 634
STARTCHAR char57344
ENCODING 57344
SWIDTH 1152 0
DWIDTH 12 0
BBX 12 13 0 -1
BITMAP
0000
0000
0000
0000
3FC0
3FC0
3FC0
3FC0
3FC0
3FC0
3FC0
3FC0
0000
ENDCHAR
STARTCHAR char57345
ENCODING 57345
SWIDTH 1152 0
DWIDTH 12 0
BBX 12 13 0 -1
BITMAP
0000
0000
3FC0
3FC0
30C0
30C0
30C0
30C0
3FC0
3FC0
0000
0000
0000
ENDCHAR
STARTCHAR char57346
ENCODING 57346
SWIDTH 1152 0
DWIDTH 12 0
BBX 12 13 0 -1
BITMAP
0000
0000
3DC0
3DC0
3C00
3DC0
3DC0
3C00
3DC0
3DC0
0000
0000
0000
ENDCHAR
STARTCHAR char57347
ENCODING 57347
SWIDTH 1152 0
DWIDTH 12 0
BBX 12 13 0 -1
BITMAP
0000
0000
3FC0
3FC0
3FC0
3FC0
0000
36C0
36C0
36C0
0000
0000
0000
ENDCHAR
STARTCHAR char57348
ENCODING 57348
SWIDTH 1152 0
DWIDTH 12 0
BBX 12 13 0 -1
BITMAP
0000
0000
3FC0
3FC0
3FC0
3FC0
0000
3FC0
0000
3FC0
0000
0000
0000
ENDCHAR
STARTCHAR char57349
ENCODING 57349
SWIDTH 1152 0
DWIDTH 12 0
BBX 12 13 0 -1
BITMAP
0000
0000
36C0
36C0
0000
36C0
36C0
0000
36C0
36C0
0000
0000
0000
ENDCHAR
STARTCHAR char57350
ENCODING 57350
SWIDTH 1152 0
DWIDTH 12 0
BBX 12 13 0 -1
BITMAP
0000
0000
3DC0
3DC0
3DC0
3DC0
01C0
3FC0
3FC0
3FC0
0000
0000
0000
ENDCHAR
STARTCHAR char57351
ENCODING 57351
SWIDTH 1152 0
DWIDTH 12 0
BBX 12 13 0 -1
BITMAP
0000
0000
3DC0
3DC0
3DC0
3DC0
3C00
3D40
3D00
3D40
0000
0000
0000
ENDCHAR
STARTCHAR char57352
ENCODING 57352
SWIDTH 1152 0
DWIDTH 12 0
BBX 12 13 0 -1
BITMAP
0000
0000
3DC0
3DC0
3DC0
3DC0
3C00
3D40
3C40
3D40
0000
0000
0000
ENDCHAR
STARTCHAR char57353
ENCODING 57353
SWIDTH 1152 0
DWIDTH 12 0
BBX 12 13 0 -1
BITMAP
0000
0000
3DC0
3DC0
3C00
3DC0
01C0
3C00
3DC0
3DC0
0000
0000
0000
ENDCHAR
STARTCHAR char57354
ENCODING 57354
SWIDTH 1152 0
DWIDTH 12 0
BBX 12 13 0 -1
BITMAP
0000
0000
3DC0
3DC0
3DC0
3DC0
0000
36C0
36C0
36C0
0000
0000
0000
ENDCHAR
STARTCHAR char57355
ENCODING 57355
SWIDTH 1152 0
DWIDTH 12 0
BBX 12 13 0 -1
BITMAP
0000
0000
0600
0500
2480
1500
0E00
1500
2480
0500
0600
0000
0000
ENDCHAR
STARTCHAR char57356
ENCODING 57356
SWIDTH 1152 0
DWIDTH 12 0
BBX 12 13 0 -1
BITMAP
0000
0000
0200
0280
0A80
0A80
0B00
0600
0200
0200
0000
0000
0000
ENDCHAR
STARTCHAR char57357
ENCODING 57357
SWIDTH 1152 0
DWIDTH 12 0
BBX 12 13 0 -1
BITMAP
0000
0000
0600
0600
1680
2640
2640
2040
1080
0F00
0000
0000
0000
ENDCHAR
STARTCHAR char57358
ENCODING 57358
SWIDTH 1152 0
DWIDTH 12 0
BBX 12 13 0 -1
BITMAP
0000
0000
0600
0600
0F00
0F00
1F80
1980
39C0
30C0
2040
0000
0000
ENDCHAR
STARTCHAR char57359
ENCODING 57359
SWIDTH 1152 0
DWIDTH 12 0
BBX 12 13 0 -1
BITMAP
0000
0000
0F00
1B80
3F00
3E00
3C00
3FC0
1F80
0F00
0000
0000
0000
ENDCHAR
STARTCHAR char57360
ENCODING 57360
SWIDTH 1152 0
DWIDTH 12 0
BBX 12 13 0 -1
BITMAP
0000
0000
3FC0
3FC0
3FC0
39C0
39C0
3FC0
3FC0
3FC0
0000
0000
0000
ENDCHAR
STARTCHAR char57361
ENCODING 57361
SWIDTH 1152 0
DWIDTH 12 0
BBX 12 13 0 -1
BITMAP
0000
0000
3FC0
3E40
3E40
3FC0
3FC0
27C0
27C0
3FC0
0000
0000
0000
ENDCHAR
STARTCHAR char57362
ENCODING 57362
SWIDTH 1152 0
DWIDTH 12 0
BBX 12 13 0 -1
BITMAP
0000
0000
3FC0
3E40
3E40
39C0
39C0
27C0
27C0
3FC0
0000
0000
0000
ENDCHAR
STARTCHAR char57363
ENCODING 57363
SWIDTH 1152 0
DWIDTH 12 0
BBX 12 13 0 -1
BITMAP
0000
0000
3FC0
2640
2640
3FC0
3FC0
2640
2640
3FC0
0000
0000
0000
ENDCHAR
STARTCHAR char57364
ENCODING 57364
SWIDTH 1152 0
DWIDTH 12 0
BBX 12 13 0 -1
BITMAP
0000
0000
3FC0
2640
2640
39C0
39C0
2640
2640
3FC0
0000
0000
0000
ENDCHAR
STARTCHAR char57365
ENCODING 57365
SWIDTH 1152 0
DWIDTH 12 0
BBX 12 13 0 -1
BITMAP
0000
0000
0F00
1B80
3BC0
3BC0
3840
3FC0
1F80
0F00
0000
0000
0000
ENDCHAR
STARTCHAR char57366
ENCODING 57366
SWIDTH 1152 0
DWIDTH 12 0
BBX 12 13 0 -1
BITMAP
0000
0000
0F00
1080
2440
2440
2740
2040
1080
0F00
0000
0000
0000
ENDCHAR
STARTCHAR char57367
ENCODING 57367
SWIDTH 1152 0
DWIDTH 12 0
BBX 12 13 0 -1
BITMAP
0000
0000
3FC0
3BC0
3BC0
3BC0
3840
3FC0
3FC0
3FC0
0000
0000
0000
ENDCHAR
STARTCHAR char57368
ENCODING 57368
SWIDTH 1152 0
DWIDTH 12 0
BBX 12 13 0 -1
BITMAP
0000
0000
3FC0
2040
2440
2440
2740
2040
2040
3FC0
0000
0000
0000
ENDCHAR
STARTCHAR char57369
ENCODING 57369
SWIDTH 1152 0
DWIDTH 12 0
BBX 12 13 0 -1
BITMAP
0000
0000
0600
0B00
1B80
3BC0
3840
1F80
0F00
0600
0000
0000
0000
ENDCHAR
STARTCHAR char57370
ENCODING 57370
SWIDTH 1152 0
DWIDTH 12 0
BBX 12 13 0 -1
BITMAP
0000
0000
0600
0900
1480
2440
2740
1080
0900
0600
0000
0000
0000
ENDCHAR
STARTCHAR char57371
ENCODING 57371
SWIDTH 1152 0
DWIDTH 12 0
BBX 12 13 0 -1
BITMAP
0000
0000
04C0
01C0
1380
0500
1A00
2400
2400
1800
0000
0000
0000
ENDCHAR
STARTCHAR char57372
ENCODING 57372
SWIDTH 1152 0
DWIDTH 12 0
BBX 12 13 0 -1
BITMAP
0000
0000
0240
0700
0740
0700
0540
0880
0880
0700
0000
0000
0000
ENDCHAR
STARTCHAR char57373
ENCODING 57373
SWIDTH 1152 0
DWIDTH 12 0
BBX 12 13 0 -1
BITMAP
0000
0000
0600
0780
0600
0780
0600
0F00
0F00
0600
0000
0000
0000
ENDCHAR
STARTCHAR char57374
ENCODING 57374
SWIDTH 1152 0
DWIDTH 12 0
BBX 12 13 0 -1
BITMAP
0000
0000
0F80
1FC0
1040
1240
1140
1240
1040
0F80
0000
0000
0000
ENDCHAR
STARTCHAR char57375
ENCODING 57375
SWIDTH 1152 0
DWIDTH 12 0
BBX 12 13 0 -1
BITMAP
0000
0000
0F80
1FC0
1040
1740
1040
1740
1040
0F80
0000
0000
0000
ENDCHAR
STARTCHAR char57376
ENCODING 57376
SWIDTH 1152 0
DWIDTH 12 0
BBX 12 13 0 -1
BITMAP
0000
0000
1540
0000
1FC0
1FC0
1FC0
1FC0
0000
1540
0000
0000
0000
ENDCHAR
STARTCHAR char57377
ENCODING 57377
SWIDTH 1152 0
DWIDTH 12 0
BBX 12 13 0 -1
BITMAP
0000
0000
36C0
0000
3FC0
3FC0
3FC0
3FC0
0000
36C0
0000
0000
0000
ENDCHAR
STARTCHAR char57378
ENCODING 57378
SWIDTH 1152 0
DWIDTH 12 0
BBX 12 13 0 -1
BITMAP
0000
0000
30C0
2F40
1F80
1F80
1F80
1F80
2F40
30C0
0000
0000
0000
ENDCHAR
STARTCHAR char57379
ENCODING 57379
SWIDTH 1152 0
DWIDTH 12 0
BBX 12 13 0 -1
BITMAP
0000
0000
0000
18C0
1740
0F80
0F80
0F80
1740
18C0
0000
0000
0000
ENDCHAR
STARTCHAR char57380
ENCODING 57380
SWIDTH 1152 0
DWIDTH 12 0
BBX 12 13 0 -1
BITMAP
0000
0000
2040
1F80
1F80
1F80
1F80
1F80
1F80
2040
0000
0000
0000
ENDCHAR
STARTCHAR char57381
ENCODING 57381
SWIDTH 1152 0
DWIDTH 12 0
BBX 12 13 0 -1
BITMAP
0000
0000
0000
1040
0F80
0F80
0F80
0F80
0F80
1040
0000
0000
0000
ENDCHAR
STARTCHAR char57382
ENCODING 57382
SWIDTH 1152 0
DWIDTH 12 0
BBX 12 13 0 -1
BITMAP
0000
0000
36C0
30C0
0F00
2F40
2F40
0F00
30C0
36C0
0000
0000
0000
ENDCHAR
STARTCHAR char57383
ENCODING 57383
SWIDTH 1152 0
DWIDTH 12 0
BBX 12 13 0 -1
BITMAP
0000
0000
1000
17C0
1F00
1980
1980
0F80
3E80
0080
0000
0000
0000
ENDCHAR
STARTCHAR char57384
ENCODING 57384
SWIDTH 1152 0
DWIDTH 12 0
BBX 12 13 0 -1
BITMAP
0000
0000
0000
2A80
0000
3F80
3F80
3F80
0000
2A80
0000
0000
0000
ENDCHAR
STARTCHAR char57385
ENCODING 57385
SWIDTH 1152 0
DWIDTH 12 0
BBX 12 13 0 -1
BITMAP
0000
0000
1F00
2080
2080
2080
3F80
3F80
3F80
3F80
0000
0000
0000
ENDCHAR
STARTCHAR char57386
ENCODING 57386
SWIDTH 1152 0
DWIDTH 12 0
BBX 12 13 0 -1
BITMAP
0000
0000
0000
3F80
2E80
2080
3F80
2E80
2080
3F80
0000
0000
0000
ENDCHAR
STARTCHAR char57387
ENCODING 57387
SWIDTH 1152 0
DWIDTH 12 0
BBX 12 13 0 -1
BITMAP
0000
0000
3FC0
2F40
2040
3FC0
2F40
2040
2040
3FC0
0000
0000
0000
ENDCHAR
STARTCHAR char57388
ENCODING 57388
SWIDTH 1152 0
DWIDTH 12 0
BBX 12 13 0 -1
BITMAP
0000
0000
1F00
3180
2E80
2E80
2E80
3180
1F00
2080
0000
0000
0000
ENDCHAR
STARTCHAR char57389
ENCODING 57389
SWIDTH 1152 0
DWIDTH 12 0
BBX 12 13 0 -1
BITMAP
0000
0000
3E00
2100
3C80
2240
3940
2540
3540
3FC0
0000
0000
0000
ENDCHAR
STARTCHAR char57390
ENCODING 57390
SWIDTH 1152 0
DWIDTH 12 0
BBX 12 13 0 -1
BITMAP
0000
0000
0700
0700
0000
0F00
0700
0700
0700
0F80
0000
0000
0000
ENDCHAR
STARTCHAR char57391
ENCODING 57391
SWIDTH 1152 0
DWIDTH 12 0
BBX 12 13 0 -1
BITMAP
0000
0000
0F00
0F00
0000
1F00
0F00
0F00
0F00
1F80
0000
0000
0000
ENDCHAR
STARTCHAR char57392
ENCODING 57392
SWIDTH 1152 0
DWIDTH 12 0
BBX 12 13 0 -1
BITMAP
0000
0000
0600
1F80
1080
1080
1080
1080
1080
1F80
0000
0000
0000
ENDCHAR
STARTCHAR char57393
ENCODING 57393
SWIDTH 1152 0
DWIDTH 12 0
BBX 12 13 0 -1
BITMAP
0000
0000
0600
1F80
1080
1080
1480
1680
1080
1F80
0000
0000
0000
ENDCHAR
STARTCHAR char57394
ENCODING 57394
SWIDTH 1152 0
DWIDTH 12 0
BBX 12 13 0 -1
BITMAP
0000
0000
0600
1F80
1080
1480
1680
1680
1080
1F80
0000
0000
0000
ENDCHAR
STARTCHAR char57395
ENCODING 57395
SWIDTH 1152 0
DWIDTH 12 0
BBX 12 13 0 -1
BITMAP
0000
0000
0600
1F80
1080
1680
1680
1680
1080
1F80
0000
0000
0000
ENDCHAR
STARTCHAR char57396
ENCODING 57396
SWIDTH 1152 0
DWIDTH 12 0
BBX 12 13 0 -1
BITMAP
0000
0000
0E00
3F80
2080
2080
2080
2080
2080
3F80
0000
0000
0000
ENDCHAR
STARTCHAR char57397
ENCODING 57397
SWIDTH 1152 0
DWIDTH 12 0
BBX 12 13 0 -1
BITMAP
0000
0000
0E00
3F80
2080
2080
2880
2C80
2080
3F80
0000
0000
0000
ENDCHAR
STARTCHAR char57398
ENCODING 57398
SWIDTH 1152 0
DWIDTH 12 0
BBX 12 13 0 -1
BITMAP
0000
0000
0E00
3F80
2080
2880
2C80
2E80
2080
3F80
0000
0000
0000
ENDCHAR
STARTCHAR char57399
ENCODING 57399
SWIDTH 1152 0
DWIDTH 12 0
BBX 12 13 0 -1
BITMAP
0000
0000
0E00
3F80
2080
2E80
2E80
2E80
2080
3F80
0000
0000
0000
ENDCHAR
STARTCHAR char57400
ENCODING 57400
SWIDTH 1152 0
DWIDTH 12 0
BBX 12 13 0 -1
BITMAP
0000
0000
0000
3F80
2080
20C0
20C0
2080
3F80
0000
0000
0000
0000
ENDCHAR
STARTCHAR char57401
ENCODING 57401
SWIDTH 1152 0
DWIDTH 12 0
BBX 12 13 0 -1
BITMAP
0000
0000
0000
3F80
2080
28C0
2CC0
2080
3F80
0000
0000
0000
0000
ENDCHAR
STARTCHAR char57402
ENCODING 57402
SWIDTH 1152 0
DWIDTH 12 0
BBX 12 13 0 -1
BITMAP
0000
0000
0000
3F80
2080
2CC0
2EC0
2080
3F80
0000
0000
0000
0000
ENDCHAR
STARTCHAR char57403
ENCODING 57403
SWIDTH 1152 0
DWIDTH 12 0
BBX 12 13 0 -1
BITMAP
0000
0000
0000
3F80
2080
2EC0
2EC0
2080
3F80
0000
0000
0000
0000
ENDCHAR
STARTCHAR char57404
ENCODING 57404
SWIDTH 1152 0
DWIDTH 12 0
BBX 12 13 0 -1
BITMAP
0000
0000
0000
3F80
2080
20C0
20C0
20C0
2080
3F80
0000
0000
0000
ENDCHAR
STARTCHAR char57405
ENCODING 57405
SWIDTH 1152 0
DWIDTH 12 0
BBX 12 13 0 -1
BITMAP
0000
0000
0000
3F80
2080
20C0
28C0
2CC0
2080
3F80
0000
0000
0000
ENDCHAR
STARTCHAR char57406
ENCODING 57406
SWIDTH 1152 0
DWIDTH 12 0
BBX 12 13 0 -1
BITMAP
0000
0000
0000
3F80
2080
28C0
2CC0
2EC0
2080
3F80
0000
0000
0000
ENDCHAR
STARTCHAR char57407
ENCODING 57407
SWIDTH 1152 0
DWIDTH 12 0
BBX 12 13 0 -1
BITMAP
0000
0000
0000
3F80
2080
2EC0
2EC0
2EC0
2080
3F80
0000
0000
0000
ENDCHAR
STARTCHAR char57408
ENCODING 57408
SWIDTH 1152 0
DWIDTH 12 0
BBX 12 13 0 -1
BITMAP
0000
0000
0100
0200
0600
0C00
0F80
1F00
0300
0600
0400
0800
0000
ENDCHAR
STARTCHAR char57409
ENCODING 57409
SWIDTH 1152 0
DWIDTH 12 0
BBX 12 13 0 -1
BITMAP
0000
0000
0900
0900
1F80
1F80
1F80
0F00
0600
0600
0000
0000
0000
ENDCHAR
STARTCHAR char57410
ENCODING 57410
SWIDTH 1152 0
DWIDTH 12 0
BBX 12 13 0 -1
BITMAP
0000
0000
0000
0700
0FC0
3F00
3F00
0FC0
0700
0000
0000
0000
0000
ENDCHAR
STARTCHAR char57411
ENCODING 57411
SWIDTH 1152 0
DWIDTH 12 0
BBX 12 13 0 -1
BITMAP
0000
0000
0E00
1200
23C0
2200
2200
23C0
1200
0E00
0000
0000
0000
ENDCHAR
STARTCHAR char57412
ENCODING 57412
SWIDTH 1152 0
DWIDTH 12 0
BBX 12 13 0 -1
BITMAP
0000
0000
0000
0000
0100
0D00
0D00
0100
0000
0000
0000
0000
0000
ENDCHAR
STARTCHAR char57413
ENCODING 57413
SWIDTH 1152 0
DWIDTH 12 0
BBX 12 13 0 -1
BITMAP
0000
0000
0000
0080
0280
1A80
1A80
0280
0080
0000
0000
0000
0000
ENDCHAR
STARTCHAR char57414
ENCODING 57414
SWIDTH 1152 0
DWIDTH 12 0
BBX 12 13 0 -1
BITMAP
0000
0000
0040
0140
0540
3540
3540
0540
0140
0040
0000
0000
0000
ENDCHAR
STARTCHAR char57415
ENCODING 57415
SWIDTH 1152 0
DWIDTH 12 0
BBX 12 13 0 -1
BITMAP
0000
0000
0000
0000
00C0
00C0
06C0
06C0
06C0
06C0
0000
0000
0000
ENDCHAR
STARTCHAR char57416
ENCODING 57416
SWIDTH 1152 0
DWIDTH 12 0
BBX 12 13 0 -1
BITMAP
0000
0000
00C0
00C0
06C0
06C0
36C0
36C0
36C0
36C0
0000
0000
0000
ENDCHAR
STARTCHAR char57417
ENCODING 57417
SWIDTH 1152 0
DWIDTH 12 0
BBX 12 13 0 -1
BITMAP
0000
0000
0000
0000
0000
0000
0F00
0000
0600
0600
0000
0000
0000
ENDCHAR
STARTCHAR char57418
ENCODING 57418
SWIDTH 1152 0
DWIDTH 12 0
BBX 12 13 0 -1
BITMAP
0000
0000
0000
0000
1F80
0000
0F00
0000
0600
0600
0000
0000
0000
ENDCHAR
STARTCHAR char57419
ENCODING 57419
SWIDTH 1152 0
DWIDTH 12 0
BBX 12 13 0 -1
BITMAP
0000
0000
3FC0
0000
1F80
0000
0F00
0000
0600
0600
0000
0000
0000
ENDCHAR
STARTCHAR char57420
ENCODING 57420
SWIDTH 1152 0
DWIDTH 12 0
BBX 12 13 0 -1
BITMAP
0000
0000
0600
0600
1680
1680
1080
0F00
0600
1F80
0000
0000
0000
ENDCHAR
STARTCHAR char57421
ENCODING 57421
SWIDTH 1152 0
DWIDTH 12 0
BBX 12 13 0 -1
BITMAP
0000
0000
0F00
1080
2040
2040
2040
39C0
39C0
1980
0000
0000
0000
ENDCHAR
STARTCHAR char57422
ENCODING 57422
SWIDTH 1152 0
DWIDTH 12 0
BBX 12 13 0 -1
BITMAP
0000
0000
0100
0300
1F00
1F00
1F00
1F00
0300
0100
0000
0000
0000
ENDCHAR
STARTCHAR char57423
ENCODING 57423
SWIDTH 1152 0
DWIDTH 12 0
BBX 12 13 0 -1
BITMAP
0000
0000
0100
0300
1F40
1E80
1D00
1A00
0500
0900
0000
0000
0000
ENDCHAR
STARTCHAR char57424
ENCODING 57424
SWIDTH 1152 0
DWIDTH 12 0
BBX 12 13 0 -1
BITMAP
0000
0000
0100
0300
1F40
1F40
1F40
1F40
0300
0100
0000
0000
0000
ENDCHAR
STARTCHAR char57425
ENCODING 57425
SWIDTH 1152 0
DWIDTH 12 0
BBX 12 13 0 -1
BITMAP
0000
0000
0000
0100
0300
1F00
1F00
1F00
0300
0100
0000
0000
0000
ENDCHAR
STARTCHAR char57426
ENCODING 57426
SWIDTH 1152 0
DWIDTH 12 0
BBX 12 13 0 -1
BITMAP
0000
0000
0000
0100
0300
1F40
1E80
1D00
0200
0500
0000
0000
0000
ENDCHAR
STARTCHAR char57427
ENCODING 57427
SWIDTH 1152 0
DWIDTH 12 0
BBX 12 13 0 -1
BITMAP
0000
0000
0000
0100
0300
1F40
1F40
1F40
0300
0100
0000
0000
0000
ENDCHAR
STARTCHAR char57428
ENCODING 57428
SWIDTH 1152 0
DWIDTH 12 0
BBX 12 13 0 -1
BITMAP
0000
0000
1080
1180
1380
1780
1780
1380
1180
1080
0000
0000
0000
ENDCHAR
STARTCHAR char57429
ENCODING 57429
SWIDTH 1152 0
DWIDTH 12 0
BBX 12 13 0 -1
BITMAP
0000
0000
0440
0CC0
1DC0
3FC0
3FC0
1DC0
0CC0
0440
0000
0000
0000
ENDCHAR
STARTCHAR char57430
ENCODING 57430
SWIDTH 1152 0
DWIDTH 12 0
BBX 12 13 0 -1
BITMAP
0000
0000
0F00
1F80
3FC0
3FC0
3FC0
3FC0
1F80
0F00
0000
0000
0000
ENDCHAR
STARTCHAR char57431
ENCODING 57431
SWIDTH 1152 0
DWIDTH 12 0
BBX 12 13 0 -1
BITMAP
0000
0000
3FC0
3FC0
3FC0
3FC0
3FC0
3FC0
3FC0
3FC0
0000
0000
0000
ENDCHAR
STARTCHAR char57432
ENCODING 57432
SWIDTH 1152 0
DWIDTH 12 0
BBX 12 13 0 -1
BITMAP
0000
0000
0800
0C00
0E00
0F00
0F00
0E00
0C00
0800
0000
0000
0000
ENDCHAR
STARTCHAR char57433
ENCODING 57433
SWIDTH 1152 0
DWIDTH 12 0
BBX 12 13 0 -1
BITMAP
0000
0000
1B00
1B00
1B00
1B00
1B00
1B00
1B00
1B00
0000
0000
0000
ENDCHAR
STARTCHAR char57434
ENCODING 57434
SWIDTH 1152 0
DWIDTH 12 0
BBX 12 13 0 -1
BITMAP
0000
0000
1080
1880
1C80
1E80
1E80
1C80
1880
1080
0000
0000
0000
ENDCHAR
STARTCHAR char57435
ENCODING 57435
SWIDTH 1152 0
DWIDTH 12 0
BBX 12 13 0 -1
BITMAP
0000
0000
2200
3300
3B80
3FC0
3FC0
3B80
3300
2200
0000
0000
0000
ENDCHAR
STARTCHAR char57436
ENCODING 57436
SWIDTH 1152 0
DWIDTH 12 0
BBX 12 13 0 -1
BITMAP
0000
0000
0FC0
0FC0
0840
0840
0840
18C0
39C0
3180
0000
0000
0000
ENDCHAR
STARTCHAR char57437
ENCODING 57437
SWIDTH 1152 0
DWIDTH 12 0
BBX 12 13 0 -1
BITMAP
0000
0000
0400
0C80
3C40
3D40
3D40
3C40
0C80
0400
0000
0000
0000
ENDCHAR
STARTCHAR char57438
ENCODING 57438
SWIDTH 1152 0
DWIDTH 12 0
BBX 12 13 0 -1
BITMAP
0000
0000
0000
2200
3F00
3F80
3F80
1F00
0200
0000
0000
0000
0000
ENDCHAR
STARTCHAR char57439
ENCODING 57439
SWIDTH 1152 0
DWIDTH 12 0
BBX 12 13 0 -1
BITMAP
0000
0000
0000
0880
1F80
3F80
3F80
1F00
0800
0000
0000
0000
0000
ENDCHAR
STARTCHAR char57440
ENCODING 57440
SWIDTH 1152 0
DWIDTH 12 0
BBX 12 13 0 -1
BITMAP
0000
0000
0600
0F00
1F80
3FC0
0F00
0F00
0F00
0F00
0000
0000
0000
ENDCHAR
STARTCHAR char57441
ENCODING 57441
SWIDTH 1152 0
DWIDTH 12 0
BBX 12 13 0 -1
BITMAP
0000
0000
0F00
0F00
0F00
0F00
3FC0
1F80
0F00
0600
0000
0000
0000
ENDCHAR
STARTCHAR char57442
ENCODING 57442
SWIDTH 1152 0
DWIDTH 12 0
BBX 12 13 0 -1
BITMAP
0000
0000
0200
0300
3F80
3FC0
3FC0
3F80
0300
0200
0000
0000
0000
ENDCHAR
STARTCHAR char57443
ENCODING 57443
SWIDTH 1152 0
DWIDTH 12 0
BBX 12 13 0 -1
BITMAP
0000
0000
0400
0C00
1FC0
3FC0
3FC0
1FC0
0C00
0400
0000
0000
0000
ENDCHAR
STARTCHAR char57444
ENCODING 57444
SWIDTH 1152 0
DWIDTH 12 0
BBX 12 13 0 -1
BITMAP
0000
0000
0600
0F00
1F80
3FC0
0F00
0F00
0F00
0780
0000
0000
0000
ENDCHAR
STARTCHAR char57445
ENCODING 57445
SWIDTH 1152 0
DWIDTH 12 0
BBX 12 13 0 -1
BITMAP
0000
0000
0780
0F00
0F00
0F00
3FC0
1F80
0F00
0600
0000
0000
0000
ENDCHAR
STARTCHAR char57446
ENCODING 57446
SWIDTH 1152 0
DWIDTH 12 0
BBX 12 13 0 -1
BITMAP
0000
0000
0600
0F00
1F80
3FC0
0F00
0F00
0F00
1E00
0000
0000
0000
ENDCHAR
STARTCHAR char57447
ENCODING 57447
SWIDTH 1152 0
DWIDTH 12 0
BBX 12 13 0 -1
BITMAP
0000
0000
1E00
0F00
0F00
0F00
3FC0
1F80
0F00
0600
0000
0000
0000
ENDCHAR
STARTCHAR char57448
ENCODING 57448
SWIDTH 1152 0
DWIDTH 12 0
BBX 12 13 0 -1
BITMAP
0000
0000
0200
0300
1F80
3FC0
3FC0
3F80
2300
0200
0000
0000
0000
ENDCHAR
STARTCHAR char57449
ENCODING 57449
SWIDTH 1152 0
DWIDTH 12 0
BBX 12 13 0 -1
BITMAP
0000
0000
0400
0C00
1F80
3FC0
3FC0
1FC0
0C40
0400
0000
0000
0000
ENDCHAR
STARTCHAR char57450
ENCODING 57450
SWIDTH 1152 0
DWIDTH 12 0
BBX 12 13 0 -1
BITMAP
0000
0000
0200
2300
3F80
3FC0
3FC0
1F80
0300
0200
0000
0000
0000
ENDCHAR
STARTCHAR char57451
ENCODING 57451
SWIDTH 1152 0
DWIDTH 12 0
BBX 12 13 0 -1
BITMAP
0000
0000
0400
0C40
1FC0
3FC0
3FC0
1F80
0C00
0400
0000
0000
0000
ENDCHAR
STARTCHAR char57452
ENCODING 57452
SWIDTH 1152 0
DWIDTH 12 0
BBX 12 13 0 -1
BITMAP
0000
0000
0000
0600
0F00
1F80
0F00
0F00
0F00
0F00
0000
0000
0000
ENDCHAR
STARTCHAR char57453
ENCODING 57453
SWIDTH 1152 0
DWIDTH 12 0
BBX 12 13 0 -1
BITMAP
0000
0000
0000
0F00
0F00
0F00
0F00
1F80
0F00
0600
0000
0000
0000
ENDCHAR
STARTCHAR char57454
ENCODING 57454
SWIDTH 1152 0
DWIDTH 12 0
BBX 12 13 0 -1
BITMAP
0000
0000
0000
0200
3F00
3F80
3F80
3F00
0200
0000
0000
0000
0000
ENDCHAR
STARTCHAR char57455
ENCODING 57455
SWIDTH 1152 0
DWIDTH 12 0
BBX 12 13 0 -1
BITMAP
0000
0000
0000
0800
1F80
3F80
3F80
1F80
0800
0000
0000
0000
0000
ENDCHAR
STARTCHAR char57456
ENCODING 57456
SWIDTH 1152 0
DWIDTH 12 0
BBX 12 13 0 -1
BITMAP
0000
0000
3FC0
1F80
2F40
36C0
39C0
3FC0
3FC0
3FC0
0000
0000
0000
ENDCHAR
STARTCHAR char57457
ENCODING 57457
SWIDTH 1152 0
DWIDTH 12 0
BBX 12 13 0 -1
BITMAP
0000
0000
3FC0
2040
30C0
2940
2640
2040
2040
3FC0
0000
0000
0000
ENDCHAR
STARTCHAR char57458
ENCODING 57458
SWIDTH 1152 0
DWIDTH 12 0
BBX 12 13 0 -1
BITMAP
0000
0000
0000
3FC0
1F80
2F40
36C0
39C0
3FC0
3FC0
0000
0000
0000
ENDCHAR
STARTCHAR char57459
ENCODING 57459
SWIDTH 1152 0
DWIDTH 12 0
BBX 12 13 0 -1
BITMAP
0000
0000
0000
3FC0
2040
30C0
2940
2640
2040
3FC0
0000
0000
0000
ENDCHAR
STARTCHAR char57460
ENCODING 57460
SWIDTH 1152 0
DWIDTH 12 0
BBX 12 13 0 -1
BITMAP
0000
0000
3000
3B00
3780
1780
3B00
3780
0FC0
0FC0
0000
0000
0000
ENDCHAR
STARTCHAR char57461
ENCODING 57461
SWIDTH 1152 0
DWIDTH 12 0
BBX 12 13 0 -1
BITMAP
0000
0000
0000
0600
0F00
0F00
0600
0F00
1F80
1F80
0000
0000
0000
ENDCHAR
STARTCHAR char57462
ENCODING 57462
SWIDTH 1152 0
DWIDTH 12 0
BBX 12 13 0 -1
BITMAP
0000
0000
3FC0
2F40
36C0
39C0
39C0
36C0
2F40
3FC0
0000
0000
0000
ENDCHAR
STARTCHAR char57463
ENCODING 57463
SWIDTH 1152 0
DWIDTH 12 0
BBX 12 13 0 -1
BITMAP
0000
0000
0F00
1980
1980
1980
1980
1F80
1980
0F00
0000
0000
0000
ENDCHAR
STARTCHAR char57464
ENCODING 57464
SWIDTH 1152 0
DWIDTH 12 0
BBX 12 13 0 -1
BITMAP
0000
0000
0F00
1980
1F80
1980
1980
1980
1980
0F00
0000
0000
0000
ENDCHAR
STARTCHAR char57465
ENCODING 57465
SWIDTH 1152 0
DWIDTH 12 0
BBX 12 13 0 -1
BITMAP
0000
0000
0F00
1F80
3FC0
30C0
30C0
3FC0
1F80
0F00
0000
0000
0000
ENDCHAR
STARTCHAR char57466
ENCODING 57466
SWIDTH 1152 0
DWIDTH 12 0
BBX 12 13 0 -1
BITMAP
0000
0000
0000
0600
0F00
1F80
0F00
0F00
0F00
0780
0000
0000
0000
ENDCHAR
STARTCHAR char57467
ENCODING 57467
SWIDTH 1152 0
DWIDTH 12 0
BBX 12 13 0 -1
BITMAP
0000
0000
0000
0780
0F00
0F00
0F00
1F80
0F00
0600
0000
0000
0000
ENDCHAR
STARTCHAR char57468
ENCODING 57468
SWIDTH 1152 0
DWIDTH 12 0
BBX 12 13 0 -1
BITMAP
0000
0000
0000
0600
0F00
1F80
0F00
0F00
0F00
1E00
0000
0000
0000
ENDCHAR
STARTCHAR char57469
ENCODING 57469
SWIDTH 1152 0
DWIDTH 12 0
BBX 12 13 0 -1
BITMAP
0000
0000
0000
1E00
0F00
0F00
0F00
1F80
0F00
0600
0000
0000
0000
ENDCHAR
STARTCHAR char57470
ENCODING 57470
SWIDTH 1152 0
DWIDTH 12 0
BBX 12 13 0 -1
BITMAP
0000
0000
0000
0200
1F00
3F80
3F80
3F00
2200
0000
0000
0000
0000
ENDCHAR
STARTCHAR char57471
ENCODING 57471
SWIDTH 1152 0
DWIDTH 12 0
BBX 12 13 0 -1
BITMAP
0000
0000
0000
0800
1F00
3F80
3F80
1F80
0880
0000
0000
0000
0000
ENDCHAR
STARTCHAR char57472
ENCODING 57472
SWIDTH 1152 0
DWIDTH 12 0
BBX 12 13 0 -1
BITMAP
0000
0000
0000
0200
0500
0D80
1C40
0F80
0700
0200
0000
0000
0000
ENDCHAR
STARTCHAR char57473
ENCODING 57473
SWIDTH 1152 0
DWIDTH 12 0
BBX 12 13 0 -1
BITMAP
0000
0000
0000
1FC0
1DC0
1DC0
1C40
1FC0
1FC0
1FC0
0000
0000
0000
ENDCHAR
STARTCHAR char57474
ENCODING 57474
SWIDTH 1152 0
DWIDTH 12 0
BBX 12 13 0 -1
BITMAP
0000
0000
0000
1AC0
18C0
0700
1740
0700
18C0
1AC0
0000
0000
0000
ENDCHAR
STARTCHAR char57475
ENCODING 57475
SWIDTH 1152 0
DWIDTH 12 0
BBX 12 13 0 -1
BITMAP
0000
0000
0000
0800
0BC0
0F00
0D80
0780
1E80
0080
0000
0000
0000
ENDCHAR
STARTCHAR char57476
ENCODING 57476
SWIDTH 1152 0
DWIDTH 12 0
BBX 12 13 0 -1
BITMAP
0000
0000
0000
0000
3F80
20C0
20C0
20C0
3F80
0000
0000
0000
0000
ENDCHAR
STARTCHAR char57477
ENCODING 57477
SWIDTH 1152 0
DWIDTH 12 0
BBX 12 13 0 -1
BITMAP
0000
0000
0000
0000
3F80
20C0
2CC0
20C0
3F80
0000
0000
0000
0000
ENDCHAR
STARTCHAR char57478
ENCODING 57478
SWIDTH 1152 0
DWIDTH 12 0
BBX 12 13 0 -1
BITMAP
0000
0000
0000
0000
3F80
20C0
2EC0
20C0
3F80
0000
0000
0000
0000
ENDCHAR
STARTCHAR char57479
ENCODING 57479
SWIDTH 1152 0
DWIDTH 12 0
BBX 12 13 0 -1
BITMAP
0000
0000
0000
0600
1F80
1080
1080
1080
1080
1F80
0000
0000
0000
ENDCHAR
STARTCHAR char57480
ENCODING 57480
SWIDTH 1152 0
DWIDTH 12 0
BBX 12 13 0 -1
BITMAP
0000
0000
0000
0600
1F80
1080
1480
1680
1080
1F80
0000
0000
0000
ENDCHAR
STARTCHAR char57481
ENCODING 57481
SWIDTH 1152 0
DWIDTH 12 0
BBX 12 13 0 -1
BITMAP
0000
0000
0000
0600
1F80
1080
1680
1680
1080
1F80
0000
0000
0000
ENDCHAR
STARTCHAR char57482
ENCODING 57482
SWIDTH 1152 0
DWIDTH 12 0
BBX 12 13 0 -1
BITMAP
0000
0000
0000
0700
0F80
0880
0880
0880
0880
0F80
0000
0000
0000
ENDCHAR
STARTCHAR char57483
ENCODING 57483
SWIDTH 1152 0
DWIDTH 12 0
BBX 12 13 0 -1
BITMAP
0000
0000
0000
0700
0F80
0880
0880
0A80
0880
0F80
0000
0000
0000
ENDCHAR
STARTCHAR char57484
ENCODING 57484
SWIDTH 1152 0
DWIDTH 12 0
BBX 12 13 0 -1
BITMAP
0000
0000
0000
0700
0F80
0880
0A80
0A80
0880
0F80
0000
0000
0000
ENDCHAR
STARTCHAR char57485
ENCODING 57485
SWIDTH 1152 0
DWIDTH 12 0
BBX 12 13 0 -1
BITMAP
0000
0000
0700
0F80
0880
0880
0880
0880
0880
0F80
0000
0000
0000
ENDCHAR
STARTCHAR char57486
ENCODING 57486
SWIDTH 1152 0
DWIDTH 12 0
BBX 12 13 0 -1
BITMAP
0000
0000
0700
0F80
0880
0880
0A80
0A80
0880
0F80
0000
0000
0000
ENDCHAR
STARTCHAR char57487
ENCODING 57487
SWIDTH 1152 0
DWIDTH 12 0
BBX 12 13 0 -1
BITMAP
0000
0000
0700
0F80
0880
0A80
0A80
0A80
0880
0F80
0000
0000
0000
ENDCHAR
STARTCHAR char57488
ENCODING 57488
SWIDTH 1152 0
DWIDTH 12 0
BBX 12 13 0 -1
BITMAP
0000
0000
0000
1FC0
1040
3040
3040
1040
1FC0
0000
0000
0000
0000
ENDCHAR
STARTCHAR char57489
ENCODING 57489
SWIDTH 1152 0
DWIDTH 12 0
BBX 12 13 0 -1
BITMAP
0000
0000
0000
1FC0
1040
3140
3340
1040
1FC0
0000
0000
0000
0000
ENDCHAR
STARTCHAR char57490
ENCODING 57490
SWIDTH 1152 0
DWIDTH 12 0
BBX 12 13 0 -1
BITMAP
0000
0000
0000
1FC0
1040
3340
3740
1040
1FC0
0000
0000
0000
0000
ENDCHAR
STARTCHAR char57491
ENCODING 57491
SWIDTH 1152 0
DWIDTH 12 0
BBX 12 13 0 -1
BITMAP
0000
0000
0000
1FC0
1040
3740
3740
1040
1FC0
0000
0000
0000
0000
ENDCHAR
STARTCHAR char57492
ENCODING 57492
SWIDTH 1152 0
DWIDTH 12 0
BBX 12 13 0 -1
BITMAP
0000
0000
0200
1300
23C0
2BC0
2BC0
23C0
1300
0200
0000
0000
0000
ENDCHAR
STARTCHAR char57493
ENCODING 57493
SWIDTH 1152 0
DWIDTH 12 0
BBX 12 13 0 -1
BITMAP
0000
0000
0400
0600
17C0
17C0
17C0
17C0
0600
0400
0000
0000
0000
ENDCHAR
STARTCHAR char57494
ENCODING 57494
SWIDTH 1152 0
DWIDTH 12 0
BBX 12 13 0 -1
BITMAP
0000
0000
0000
1080
1180
1380
1780
1380
1180
1080
0000
0000
0000
ENDCHAR
STARTCHAR char57495
ENCODING 57495
SWIDTH 1152 0
DWIDTH 12 0
BBX 12 13 0 -1
BITMAP
0000
0000
0000
0880
1980
3B80
7F80
3B80
1980
0880
0000
0000
0000
ENDCHAR
STARTCHAR char57496
ENCODING 57496
SWIDTH 1152 0
DWIDTH 12 0
BBX 12 13 0 -1
BITMAP
0000
0000
0000
0E00
1F00
3F80
3F80
3F80
1F00
0E00
0000
0000
0000
ENDCHAR
STARTCHAR char57497
ENCODING 57497
SWIDTH 1152 0
DWIDTH 12 0
BBX 12 13 0 -1
BITMAP
0000
0000
0000
3F80
3F80
3F80
3F80
3F80
3F80
3F80
0000
0000
0000
ENDCHAR
STARTCHAR char57498
ENCODING 57498
SWIDTH 1152 0
DWIDTH 12 0
BBX 12 13 0 -1
BITMAP
0000
0000
0000
0800
0C00
0E00
0F00
0E00
0C00
0800
0000
0000
0000
ENDCHAR
STARTCHAR char57499
ENCODING 57499
SWIDTH 1152 0
DWIDTH 12 0
BBX 12 13 0 -1
BITMAP
0000
0000
0000
1B00
1B00
1B00
1B00
1B00
1B00
1B00
0000
0000
0000
ENDCHAR
STARTCHAR char57500
ENCODING 57500
SWIDTH 1152 0
DWIDTH 12 0
BBX 12 13 0 -1
BITMAP
0000
0000
0000
1080
1880
1C80
1E80
1C80
1880
1080
0000
0000
0000
ENDCHAR
STARTCHAR char57501
ENCODING 57501
SWIDTH 1152 0
DWIDTH 12 0
BBX 12 13 0 -1
BITMAP
0000
0000
0000
2200
3300
3B80
3FC0
3B80
3300
2200
0000
0000
0000
ENDCHAR
STARTCHAR char57502
ENCODING 57502
SWIDTH 1152 0
DWIDTH 12 0
BBX 12 13 0 -1
BITMAP
0000
0000
0100
0200
0600
0C00
1F80
0300
0600
0400
0800
0000
0000
ENDCHAR
STARTCHAR char57503
ENCODING 57503
SWIDTH 1152 0
DWIDTH 12 0
BBX 12 13 0 -1
BITMAP
0000
0000
3FC0
2040
2040
2040
2040
3FC0
0600
1F80
0000
0000
0000
ENDCHAR
STARTCHAR char57504
ENCODING 57504
SWIDTH 1152 0
DWIDTH 12 0
BBX 12 13 0 -1
BITMAP
0000
0000
0000
0F00
1B80
1F00
1E00
1F80
0F00
0000
0000
0000
0000
ENDCHAR
STARTCHAR char57505
ENCODING 57505
SWIDTH 1152 0
DWIDTH 12 0
BBX 12 13 0 -1
BITMAP
0000
0000
0600
0600
0F00
0F00
1F80
1980
39C0
30C0
0000
0000
0000
ENDCHAR
STARTCHAR char57506
ENCODING 57506
SWIDTH 1152 0
DWIDTH 12 0
BBX 12 13 0 -1
BITMAP
0000
0000
0000
0F00
1B80
1B80
1880
1F80
0F00
0000
0000
0000
0000
ENDCHAR
STARTCHAR char57507
ENCODING 57507
SWIDTH 1152 0
DWIDTH 12 0
BBX 12 13 0 -1
BITMAP
0000
0000
0000
0E00
1B00
3B80
3880
3F80
1F00
0E00
0000
0000
0000
ENDCHAR
STARTCHAR char57508
ENCODING 57508
SWIDTH 1152 0
DWIDTH 12 0
BBX 12 13 0 -1
BITMAP
0000
0000
0000
0600
0780
0600
0780
0600
0F00
0600
0000
0000
0000
ENDCHAR
STARTCHAR char57509
ENCODING 57509
SWIDTH 1152 0
DWIDTH 12 0
BBX 12 13 0 -1
BITMAP
0000
0000
0000
0480
0E00
0E80
0A00
1100
1100
0E00
0000
0000
0000
ENDCHAR
STARTCHAR char57510
ENCODING 57510
SWIDTH 1152 0
DWIDTH 12 0
BBX 12 13 0 -1
BITMAP
0000
0000
0000
0F00
1080
1080
1080
1F80
1F80
1F80
0000
0000
0000
ENDCHAR
STARTCHAR char57511
ENCODING 57511
SWIDTH 1152 0
DWIDTH 12 0
BBX 12 13 0 -1
BITMAP
0000
0000
1F80
1980
1980
1980
1980
1F80
1980
1F80
0000
0000
0000
ENDCHAR
STARTCHAR char57512
ENCODING 57512
SWIDTH 1152 0
DWIDTH 12 0
BBX 12 13 0 -1
BITMAP
0000
0000
1F80
1980
1F80
1980
1980
1980
1980
1F80
0000
0000
0000
ENDCHAR
STARTCHAR char57513
ENCODING 57513
SWIDTH 1152 0
DWIDTH 12 0
BBX 12 13 0 -1
BITMAP
0000
0000
0000
0F00
1080
2640
2640
1080
0F00
0000
0000
0000
0000
ENDCHAR
STARTCHAR char57514
ENCODING 57514
SWIDTH 1152 0
DWIDTH 12 0
BBX 12 13 0 -1
BITMAP
0000
0000
0E00
1F00
3580
3580
3F80
3F80
3F80
2A80
0000
0000
0000
ENDCHAR
STARTCHAR char57515
ENCODING 57515
SWIDTH 1152 0
DWIDTH 12 0
BBX 12 13 0 -1
BITMAP
0000
0000
0F00
1F80
39C0
36C0
36C0
39C0
1F80
0F00
0000
0000
0000
ENDCHAR
STARTCHAR char57516
ENCODING 57516
SWIDTH 1152 0
DWIDTH 12 0
BBX 12 13 0 -1
BITMAP
0000
0000
0000
1E00
1100
1C80
1280
1A80
1F80
0000
0000
0000
0000
ENDCHAR
STARTCHAR char57517
ENCODING 57517
SWIDTH 1152 0
DWIDTH 12 0
BBX 12 13 0 -1
BITMAP
0000
0000
1F80
2040
2040
2040
2040
1E80
0300
0200
0000
0000
0000
ENDCHAR
STARTCHAR char57518
ENCODING 57518
SWIDTH 1152 0
DWIDTH 12 0
BBX 12 13 0 -1
BITMAP
0000
0000
0600
0900
1980
39C0
39C0
1F80
0900
0600
0000
0000
0000
ENDCHAR
STARTCHAR char57519
ENCODING 57519
SWIDTH 1152 0
DWIDTH 12 0
BBX 12 13 0 -1
BITMAP
0000
0000
0000
1F80
1080
1080
1080
1F80
0600
1F80
0000
0000
0000
ENDCHAR
STARTCHAR char57520
ENCODING 57520
SWIDTH 1152 0
DWIDTH 12 0
BBX 12 13 0 -1
BITMAP
0000
0000
0000
0200
1300
0A80
0700
0A80
1300
0200
0000
0000
0000
ENDCHAR
STARTCHAR char57521
ENCODING 57521
SWIDTH 1152 0
DWIDTH 12 0
BBX 12 13 0 -1
BITMAP
0000
0000
3E00
3E00
3E00
3EC0
3EC0
00C0
07C0
07C0
0000
0000
0000
ENDCHAR
STARTCHAR char57522
ENCODING 57522
SWIDTH 1152 0
DWIDTH 12 0
BBX 12 13 0 -1
BITMAP
0000
0000
0600
0F00
1F80
3FC0
1080
1680
1680
1F80
0000
0000
0000
ENDCHAR
STARTCHAR char57523
ENCODING 57523
SWIDTH 1152 0
DWIDTH 12 0
BBX 12 13 0 -1
BITMAP
0000
0000
0700
0700
0700
0700
0700
0000
0700
0700
0000
0000
0000
ENDCHAR
STARTCHAR char57524
ENCODING 57524
SWIDTH 1152 0
DWIDTH 12 0
BBX 12 13 0 -1
BITMAP
0000
0000
0000
3FC0
2040
2040
2040
2040
2040
3FC0
0000
0000
0000
ENDCHAR
STARTCHAR char57525
ENCODING 57525
SWIDTH 1152 0
DWIDTH 12 0
BBX 12 13 0 -1
BITMAP
0000
0000
0000
3FC0
2240
23C0
2240
23C0
2240
3FC0
0000
0000
0000
ENDCHAR
STARTCHAR char57526
ENCODING 57526
SWIDTH 1152 0
DWIDTH 12 0
BBX 12 13 0 -1
BITMAP
0000
0000
0000
3FC0
2040
2040
3FC0
2940
2940
3FC0
0000
0000
0000
ENDCHAR
STARTCHAR char57527
ENCODING 57527
SWIDTH 1152 0
DWIDTH 12 0
BBX 12 13 0 -1
BITMAP
0000
0000
0000
3FC0
2040
2040
2040
3FC0
2040
3FC0
0000
0000
0000
ENDCHAR
STARTCHAR char57528
ENCODING 57528
SWIDTH 1152 0
DWIDTH 12 0
BBX 12 13 0 -1
BITMAP
0000
0000
0000
3FC0
2940
3FC0
2940
3FC0
2940
3FC0
0000
0000
0000
ENDCHAR
STARTCHAR char57529
ENCODING 57529
SWIDTH 1152 0
DWIDTH 12 0
BBX 12 13 0 -1
BITMAP
0000
0000
0000
3E00
2200
2200
3EC0
0040
0440
07C0
0000
0000
0000
ENDCHAR
STARTCHAR char57530
ENCODING 57530
SWIDTH 1152 0
DWIDTH 12 0
BBX 12 13 0 -1
BITMAP
0000
0000
0000
3FC0
2440
27C0
2540
25C0
2540
3FC0
0000
0000
0000
ENDCHAR
STARTCHAR char57531
ENCODING 57531
SWIDTH 1152 0
DWIDTH 12 0
BBX 12 13 0 -1
BITMAP
0000
0000
0000
3FC0
2440
27C0
2540
2740
2540
3FC0
0000
0000
0000
ENDCHAR
STARTCHAR char57532
ENCODING 57532
SWIDTH 1152 0
DWIDTH 12 0
BBX 12 13 0 -1
BITMAP
0000
0000
0000
3FC0
2240
23C0
3E40
23C0
2240
3FC0
0000
0000
0000
ENDCHAR
STARTCHAR char57533
ENCODING 57533
SWIDTH 1152 0
DWIDTH 12 0
BBX 12 13 0 -1
BITMAP
0000
0000
0000
3FC0
2240
2240
3FC0
2940
2940
3FC0
0000
0000
0000
ENDCHAR
STARTCHAR char57534
ENCODING 57534
SWIDTH 1152 0
DWIDTH 12 0
BBX 12 13 0 -1
BITMAP
0000
0000
0000
3FC0
2240
2240
3E40
2040
2040
3FC0
0000
0000
0000
ENDCHAR
STARTCHAR char57535
ENCODING 57535
SWIDTH 1152 0
DWIDTH 12 0
BBX 12 13 0 -1
BITMAP
0000
0000
0600
0900
1080
3FC0
1080
1680
1680
1F80
0000
0000
0000
ENDCHAR
STARTCHAR char57536
ENCODING 57536
SWIDTH 1152 0
DWIDTH 12 0
BBX 12 13 0 -1
BITMAP
0000
0000
0000
18C0
1740
0880
0880
0880
1740
18C0
0000
0000
0000
ENDCHAR
STARTCHAR char57537
ENCODING 57537
SWIDTH 1152 0
DWIDTH 12 0
BBX 12 13 0 -1
BITMAP
0000
0000
30C0
2F40
1080
1080
1080
1080
2F40
30C0
0000
0000
0000
ENDCHAR
STARTCHAR char57538
ENCODING 57538
SWIDTH 1152 0
DWIDTH 12 0
BBX 12 13 0 -1
BITMAP
0000
0000
0000
1040
0F80
0880
0880
0880
0F80
1040
0000
0000
0000
ENDCHAR
STARTCHAR char57539
ENCODING 57539
SWIDTH 1152 0
DWIDTH 12 0
BBX 12 13 0 -1
BITMAP
0000
0000
2040
1F80
1080
1080
1080
1080
1F80
2040
0000
0000
0000
ENDCHAR
STARTCHAR char57540
ENCODING 57540
SWIDTH 1152 0
DWIDTH 12 0
BBX 12 13 0 -1
BITMAP
0000
0000
0000
1540
0000
1FC0
1040
1FC0
0000
1540
0000
0000
0000
ENDCHAR
STARTCHAR char57541
ENCODING 57541
SWIDTH 1152 0
DWIDTH 12 0
BBX 12 13 0 -1
BITMAP
0000
0000
1540
0000
1FC0
1040
1040
1FC0
0000
1540
0000
0000
0000
ENDCHAR
STARTCHAR char57542
ENCODING 57542
SWIDTH 1152 0
DWIDTH 12 0
BBX 12 13 0 -1
BITMAP
0000
0000
0000
0700
0F80
1AC0
1AC0
1FC0
1FC0
1540
0000
0000
0000
ENDCHAR
STARTCHAR char57543
ENCODING 57543
SWIDTH 1152 0
DWIDTH 12 0
BBX 12 13 0 -1
BITMAP
0000
0000
0000
0700
0F80
1AC0
1FC0
1FC0
1FC0
1540
0000
0000
0000
ENDCHAR
STARTCHAR char57544
ENCODING 57544
SWIDTH 1152 0
DWIDTH 12 0
BBX 12 13 0 -1
BITMAP
0000
0000
0700
0F80
1AC0
1FC0
1FC0
1FC0
1FC0
1540
0000
0000
0000
ENDCHAR
STARTCHAR char57545
ENCODING 57545
SWIDTH 1152 0
DWIDTH 12 0
BBX 12 13 0 -1
BITMAP
0000
0000
0000
0980
2380
0700
1A00
2400
2400
1800
0000
0000
0000
ENDCHAR
STARTCHAR char57546
ENCODING 57546
SWIDTH 1152 0
DWIDTH 12 0
BBX 12 13 0 -1
BITMAP
0000
0000
04C0
0140
1280
0500
1A00
2400
2400
1800
0000
0000
0000
ENDCHAR
STARTCHAR char57547
ENCODING 57547
SWIDTH 1152 0
DWIDTH 12 0
BBX 12 13 0 -1
BITMAP
0000
0000
0000
04C0
1140
0280
0D00
1200
1200
0C00
0000
0000
0000
ENDCHAR
STARTCHAR char57548
ENCODING 57548
SWIDTH 1152 0
DWIDTH 12 0
BBX 12 13 0 -1
BITMAP
0000
0000
0480
0E00
0A80
0A00
0A80
1100
1100
0E00
0000
0000
0000
ENDCHAR
STARTCHAR char57549
ENCODING 57549
SWIDTH 1152 0
DWIDTH 12 0
BBX 12 13 0 -1
BITMAP
0000
0000
0000
0480
0E00
0A80
0A00
1100
1100
0E00
0000
0000
0000
ENDCHAR
STARTCHAR char57550
ENCODING 57550
SWIDTH 1152 0
DWIDTH 12 0
BBX 12 13 0 -1
BITMAP
0000
0000
0000
0E00
0B80
0A00
0B80
0A00
1100
0E00
0000
0000
0000
ENDCHAR
STARTCHAR char57551
ENCODING 57551
SWIDTH 1152 0
DWIDTH 12 0
BBX 12 13 0 -1
BITMAP
0000
0000
0E00
0B80
0A00
0B80
0A00
1100
1100
0E00
0000
0000
0000
ENDCHAR
STARTCHAR char57552
ENCODING 57552
SWIDTH 1152 0
DWIDTH 12 0
BBX 12 13 0 -1
BITMAP
0000
0000
0600
0900
1080
39C0
0900
0900
0900
0F00
0000
0000
0000
ENDCHAR
STARTCHAR char57553
ENCODING 57553
SWIDTH 1152 0
DWIDTH 12 0
BBX 12 13 0 -1
BITMAP
0000
0000
0F00
0900
0900
0900
39C0
1080
0900
0600
0000
0000
0000
ENDCHAR
STARTCHAR char57554
ENCODING 57554
SWIDTH 1152 0
DWIDTH 12 0
BBX 12 13 0 -1
BITMAP
0000
0000
0200
0300
3E80
2040
2040
3E80
0300
0200
0000
0000
0000
ENDCHAR
STARTCHAR char57555
ENCODING 57555
SWIDTH 1152 0
DWIDTH 12 0
BBX 12 13 0 -1
BITMAP
0000
0000
0400
0C00
17C0
2040
2040
17C0
0C00
0400
0000
0000
0000
ENDCHAR
STARTCHAR char57556
ENCODING 57556
SWIDTH 1152 0
DWIDTH 12 0
BBX 12 13 0 -1
BITMAP
0000
0000
0000
0200
0500
0880
1DC0
0500
0500
0700
0000
0000
0000
ENDCHAR
STARTCHAR char57557
ENCODING 57557
SWIDTH 1152 0
DWIDTH 12 0
BBX 12 13 0 -1
BITMAP
0000
0000
0000
0700
0500
0500
1DC0
0880
0500
0200
0000
0000
0000
ENDCHAR
STARTCHAR char57558
ENCODING 57558
SWIDTH 1152 0
DWIDTH 12 0
BBX 12 13 0 -1
BITMAP
0000
0000
0000
0200
0300
1E80
1040
1E80
0300
0200
0000
0000
0000
ENDCHAR
STARTCHAR char57559
ENCODING 57559
SWIDTH 1152 0
DWIDTH 12 0
BBX 12 13 0 -1
BITMAP
0000
0000
0000
0400
0C00
1780
2080
1780
0C00
0400
0000
0000
0000
ENDCHAR
STARTCHAR char57560
ENCODING 57560
SWIDTH 1152 0
DWIDTH 12 0
BBX 12 13 0 -1
BITMAP
0000
0000
0000
0600
0A00
33C0
2200
33C0
0A00
0600
0000
0000
0000
ENDCHAR
STARTCHAR char57561
ENCODING 57561
SWIDTH 1152 0
DWIDTH 12 0
BBX 12 13 0 -1
BITMAP
0000
0000
0600
0A00
13C0
2200
2200
13C0
0A00
0600
0000
0000
0000
ENDCHAR
STARTCHAR char57562
ENCODING 57562
SWIDTH 1152 0
DWIDTH 12 0
BBX 12 13 0 -1
BITMAP
0000
0000
0900
0900
0900
1F80
1080
0900
0600
0600
0000
0000
0000
ENDCHAR
STARTCHAR char57563
ENCODING 57563
SWIDTH 1152 0
DWIDTH 12 0
BBX 12 13 0 -1
BITMAP
0000
0000
0000
0900
0900
1F80
1080
0900
0600
0600
0000
0000
0000
ENDCHAR
STARTCHAR char57564
ENCODING 57564
SWIDTH 1152 0
DWIDTH 12 0
BBX 12 13 0 -1
BITMAP
0000
0000
0000
0F00
1080
2500
2200
23C0
1080
0F00
0000
0000
0000
ENDCHAR
STARTCHAR char57565
ENCODING 57565
SWIDTH 1152 0
DWIDTH 12 0
BBX 12 13 0 -1
BITMAP
0000
0000
0600
0900
0900
1080
1080
2640
2940
30C0
0000
0000
0000
ENDCHAR
STARTCHAR char57566
ENCODING 57566
SWIDTH 1152 0
DWIDTH 12 0
BBX 12 13 0 -1
BITMAP
0000
0000
0F00
1080
2480
2100
2200
21C0
1080
0F00
0000
0000
0000
ENDCHAR
STARTCHAR char57567
ENCODING 57567
SWIDTH 1152 0
DWIDTH 12 0
BBX 12 13 0 -1
BITMAP
0000
0000
0000
0200
0500
0500
0880
0A80
1540
18C0
0000
0000
0000
ENDCHAR
STARTCHAR char57568
ENCODING 57568
SWIDTH 1152 0
DWIDTH 12 0
BBX 12 13 0 -1
BITMAP
0000
0000
0400
0C80
3440
2540
2540
3440
0C80
0400
0000
0000
0000
ENDCHAR
STARTCHAR char57569
ENCODING 57569
SWIDTH 1152 0
DWIDTH 12 0
BBX 12 13 0 -1
BITMAP
0000
0000
0000
0400
0C80
3440
2540
3440
0C80
0400
0000
0000
0000
ENDCHAR
STARTCHAR char57570
ENCODING 57570
SWIDTH 1152 0
DWIDTH 12 0
BBX 12 13 0 -1
BITMAP
0000
0000
0100
0300
1D40
1140
1140
1D40
0300
0100
0000
0000
0000
ENDCHAR
STARTCHAR char57571
ENCODING 57571
SWIDTH 1152 0
DWIDTH 12 0
BBX 12 13 0 -1
BITMAP
0000
0000
0000
0100
0300
1D40
1140
1D40
0300
0100
0000
0000
0000
ENDCHAR
STARTCHAR char57572
ENCODING 57572
SWIDTH 1152 0
DWIDTH 12 0
BBX 12 13 0 -1
BITMAP
0000
0000
1080
1180
1280
1480
1480
1280
1180
1080
0000
0000
0000
ENDCHAR
STARTCHAR char57573
ENCODING 57573
SWIDTH 1152 0
DWIDTH 12 0
BBX 12 13 0 -1
BITMAP
0000
0000
0440
0CC0
1540
2640
2640
1540
0CC0
0440
0000
0000
0000
ENDCHAR
STARTCHAR char57574
ENCODING 57574
SWIDTH 1152 0
DWIDTH 12 0
BBX 12 13 0 -1
BITMAP
0000
0000
0F00
1080
2040
2040
2040
2040
1080
0F00
0000
0000
0000
ENDCHAR
STARTCHAR char57575
ENCODING 57575
SWIDTH 1152 0
DWIDTH 12 0
BBX 12 13 0 -1
BITMAP
0000
0000
3FC0
2040
2040
2040
2040
2040
2040
3FC0
0000
0000
0000
ENDCHAR
STARTCHAR char57576
ENCODING 57576
SWIDTH 1152 0
DWIDTH 12 0
BBX 12 13 0 -1
BITMAP
0000
0000
0800
0C00
0A00
0900
0900
0A00
0C00
0800
0000
0000
0000
ENDCHAR
STARTCHAR char57577
ENCODING 57577
SWIDTH 1152 0
DWIDTH 12 0
BBX 12 13 0 -1
BITMAP
0000
0000
0900
0900
0900
0900
0900
0900
0900
0900
0000
0000
0000
ENDCHAR
STARTCHAR char57578
ENCODING 57578
SWIDTH 1152 0
DWIDTH 12 0
BBX 12 13 0 -1
BITMAP
0000
0000
1080
1880
1480
1280
1280
1480
1880
1080
0000
0000
0000
ENDCHAR
STARTCHAR char57579
ENCODING 57579
SWIDTH 1152 0
DWIDTH 12 0
BBX 12 13 0 -1
BITMAP
0000
0000
2200
3300
2A80
2640
2640
2A80
3300
2200
0000
0000
0000
ENDCHAR
STARTCHAR char57580
ENCODING 57580
SWIDTH 1152 0
DWIDTH 12 0
BBX 12 13 0 -1
BITMAP
0000
0000
0000
0F80
0880
0880
0880
1980
2A80
3300
0000
0000
0000
ENDCHAR
STARTCHAR char57581
ENCODING 57581
SWIDTH 1152 0
DWIDTH 12 0
BBX 12 13 0 -1
BITMAP
0000
0000
0F80
0880
0880
0880
0880
1980
2A80
3300
0000
0000
0000
ENDCHAR
STARTCHAR char57582
ENCODING 57582
SWIDTH 1152 0
DWIDTH 12 0
BBX 12 13 0 -1
BITMAP
0000
0000
0000
0000
0000
0000
0080
0080
0280
0280
0000
0000
0000
ENDCHAR
STARTCHAR char57583
ENCODING 57583
SWIDTH 1152 0
DWIDTH 12 0
BBX 12 13 0 -1
BITMAP
0000
0000
0000
0000
0080
0080
0280
0280
0A80
0A80
0000
0000
0000
ENDCHAR
STARTCHAR char57584
ENCODING 57584
SWIDTH 1152 0
DWIDTH 12 0
BBX 12 13 0 -1
BITMAP
0000
0000
0080
0080
0280
0280
0A80
0A80
2A80
2A80
0000
0000
0000
ENDCHAR
STARTCHAR char57585
ENCODING 57585
SWIDTH 1152 0
DWIDTH 12 0
BBX 12 13 0 -1
BITMAP
0000
0000
0000
0000
0000
0000
0000
0080
0080
0280
0000
0000
0000
ENDCHAR
STARTCHAR char57586
ENCODING 57586
SWIDTH 1152 0
DWIDTH 12 0
BBX 12 13 0 -1
BITMAP
0000
0000
0000
0000
0000
0080
0080
0280
0280
0A80
0000
0000
0000
ENDCHAR
STARTCHAR char57587
ENCODING 57587
SWIDTH 1152 0
DWIDTH 12 0
BBX 12 13 0 -1
BITMAP
0000
0000
0000
0080
0080
0280
0280
0A80
0A80
2A80
0000
0000
0000
ENDCHAR
STARTCHAR char57588
ENCODING 57588
SWIDTH 1152 0
DWIDTH 12 0
BBX 12 13 0 -1
BITMAP
0000
0000
0000
1080
1180
1280
1480
1280
1180
1080
0000
0000
0000
ENDCHAR
STARTCHAR char57589
ENCODING 57589
SWIDTH 1152 0
DWIDTH 12 0
BBX 12 13 0 -1
BITMAP
0000
0000
0000
0880
1980
2A80
4C80
2A80
1980
0880
0000
0000
0000
ENDCHAR
STARTCHAR char57590
ENCODING 57590
SWIDTH 1152 0
DWIDTH 12 0
BBX 12 13 0 -1
BITMAP
0000
0000
0000
0E00
1100
2080
2080
2080
1100
0E00
0000
0000
0000
ENDCHAR
STARTCHAR char57591
ENCODING 57591
SWIDTH 1152 0
DWIDTH 12 0
BBX 12 13 0 -1
BITMAP
0000
0000
0000
3F80
2080
2080
2080
2080
2080
3F80
0000
0000
0000
ENDCHAR
STARTCHAR char57592
ENCODING 57592
SWIDTH 1152 0
DWIDTH 12 0
BBX 12 13 0 -1
BITMAP
0000
0000
0000
0800
0C00
0A00
0900
0A00
0C00
0800
0000
0000
0000
ENDCHAR
STARTCHAR char57593
ENCODING 57593
SWIDTH 1152 0
DWIDTH 12 0
BBX 12 13 0 -1
BITMAP
0000
0000
0000
0900
0900
0900
0900
0900
0900
0900
0000
0000
0000
ENDCHAR
STARTCHAR char57594
ENCODING 57594
SWIDTH 1152 0
DWIDTH 12 0
BBX 12 13 0 -1
BITMAP
0000
0000
0000
0840
0C40
0A40
0940
0A40
0C40
0840
0000
0000
0000
ENDCHAR
STARTCHAR char57595
ENCODING 57595
SWIDTH 1152 0
DWIDTH 12 0
BBX 12 13 0 -1
BITMAP
0000
0000
0000
0880
0CC0
0AA0
0990
0AA0
0CC0
0880
0000
0000
0000
ENDCHAR
STARTCHAR char57596
ENCODING 57596
SWIDTH 1152 0
DWIDTH 12 0
BBX 12 13 0 -1
BITMAP
0000
0000
0000
0F00
1080
2040
2040
39C0
2940
1980
0000
0000
0000
ENDCHAR
STARTCHAR char57597
ENCODING 57597
SWIDTH 1152 0
DWIDTH 12 0
BBX 12 13 0 -1
BITMAP
0000
0000
0000
0F00
1080
2040
2040
39C0
39C0
1980
0000
0000
0000
ENDCHAR
STARTCHAR char57598
ENCODING 57598
SWIDTH 1152 0
DWIDTH 12 0
BBX 12 13 0 -1
BITMAP
0000
0000
0000
0F80
0F80
0880
0880
1980
3B80
3300
0000
0000
0000
ENDCHAR
STARTCHAR char57599
ENCODING 57599
SWIDTH 1152 0
DWIDTH 12 0
BBX 12 13 0 -1
BITMAP
0000
0000
0700
0700
0000
0700
0700
0700
0700
0700
0000
0000
0000
ENDCHAR
STARTCHAR char57600
ENCODING 57600
SWIDTH 1152 0
DWIDTH 12 0
BBX 12 13 0 -1
BITMAP
0000
0000
0000
1E40
0FC0
08C0
1AC0
1880
1F80
13C0
0000
0000
0000
ENDCHAR
STARTCHAR char57601
ENCODING 57601
SWIDTH 1152 0
DWIDTH 12 0
BBX 12 13 0 -1
BITMAP
0000
0000
0000
1C80
0F80
0980
1900
1F00
1380
0000
0000
0000
0000
ENDCHAR
STARTCHAR char57602
ENCODING 57602
SWIDTH 1152 0
DWIDTH 12 0
BBX 12 13 0 -1
BITMAP
0000
0000
0000
3FC0
30C0
2940
2640
2040
3FC0
0000
0000
0000
0000
ENDCHAR
STARTCHAR char57603
ENCODING 57603
SWIDTH 1152 0
DWIDTH 12 0
BBX 12 13 0 -1
BITMAP
0000
0000
0000
3FC0
1F80
2F40
30C0
3FC0
3FC0
0000
0000
0000
0000
ENDCHAR
STARTCHAR char57604
ENCODING 57604
SWIDTH 1152 0
DWIDTH 12 0
BBX 12 13 0 -1
BITMAP
0000
0000
0400
0E00
1F00
3F80
1F00
0E00
0400
0000
0000
0000
0000
ENDCHAR
STARTCHAR char57605
ENCODING 57605
SWIDTH 1152 0
DWIDTH 12 0
BBX 12 13 0 -1
BITMAP
0000
0000
0000
0200
0700
0F80
1FC0
0F80
0700
0200
0000
0000
0000
ENDCHAR
STARTCHAR char57606
ENCODING 57606
SWIDTH 1152 0
DWIDTH 12 0
BBX 12 13 0 -1
BITMAP
0000
0000
1980
3FC0
3FC0
3FC0
3FC0
1F80
0F00
0600
0000
0000
0000
ENDCHAR
STARTCHAR char57607
ENCODING 57607
SWIDTH 1152 0
DWIDTH 12 0
BBX 12 13 0 -1
BITMAP
0000
0000
0000
1980
3FC0
3FC0
3FC0
1F80
0F00
0600
0000
0000
0000
ENDCHAR
STARTCHAR char57608
ENCODING 57608
SWIDTH 1152 0
DWIDTH 12 0
BBX 12 13 0 -1
BITMAP
0000
0000
0200
0500
0880
1DC0
0500
0500
0500
0700
0000
0000
0000
ENDCHAR
STARTCHAR char57609
ENCODING 57609
SWIDTH 1152 0
DWIDTH 12 0
BBX 12 13 0 -1
BITMAP
0000
0000
0700
0500
0500
0500
1DC0
0880
0500
0200
0000
0000
0000
ENDCHAR
STARTCHAR char57610
ENCODING 57610
SWIDTH 1152 0
DWIDTH 12 0
BBX 12 13 0 -1
BITMAP
0000
0000
0000
0200
0300
3E80
2040
3E80
0300
0200
0000
0000
0000
ENDCHAR
STARTCHAR char57611
ENCODING 57611
SWIDTH 1152 0
DWIDTH 12 0
BBX 12 13 0 -1
BITMAP
0000
0000
0000
0400
0C00
17C0
2040
17C0
0C00
0400
0000
0000
0000
ENDCHAR
STARTCHAR char57612
ENCODING 57612
SWIDTH 1152 0
DWIDTH 12 0
BBX 12 13 0 -1
BITMAP
0000
0000
0200
0200
0A80
1240
1240
1040
0880
0700
0000
0000
0000
ENDCHAR
STARTCHAR char57613
ENCODING 57613
SWIDTH 1152 0
DWIDTH 12 0
BBX 12 13 0 -1
BITMAP
0000
0000
0000
0200
0A80
1240
1240
1040
0880
0700
0000
0000
0000
ENDCHAR
STARTCHAR char57614
ENCODING 57614
SWIDTH 1152 0
DWIDTH 12 0
BBX 12 13 0 -1
BITMAP
0000
0000
0000
0200
0500
0880
1FC0
0880
0A80
0F80
0000
0000
0000
ENDCHAR
STARTCHAR char57615
ENCODING 57615
SWIDTH 1152 0
DWIDTH 12 0
BBX 12 13 0 -1
BITMAP
0000
0000
0000
0900
0B80
0900
0900
0900
1D00
0900
0000
0000
0000
ENDCHAR
STARTCHAR char57616
ENCODING 57616
SWIDTH 1152 0
DWIDTH 12 0
BBX 12 13 0 -1
BITMAP
0000
0000
0000
0200
0F80
0880
0880
0880
0880
0F80
0000
0000
0000
ENDCHAR
STARTCHAR char57617
ENCODING 57617
SWIDTH 1152 0
DWIDTH 12 0
BBX 12 13 0 -1
BITMAP
0000
0000
0000
0200
0F80
0880
0880
0A80
0880
0F80
0000
0000
0000
ENDCHAR
STARTCHAR char57618
ENCODING 57618
SWIDTH 1152 0
DWIDTH 12 0
BBX 12 13 0 -1
BITMAP
0000
0000
0000
0200
0F80
0880
0A80
0A80
0880
0F80
0000
0000
0000
ENDCHAR
STARTCHAR char57619
ENCODING 57619
SWIDTH 1152 0
DWIDTH 12 0
BBX 12 13 0 -1
BITMAP
0000
0000
0000
0000
3F80
2080
20C0
2080
3F80
0000
0000
0000
0000
ENDCHAR
STARTCHAR char57620
ENCODING 57620
SWIDTH 1152 0
DWIDTH 12 0
BBX 12 13 0 -1
BITMAP
0000
0000
0000
0000
3F80
2080
28C0
2080
3F80
0000
0000
0000
0000
ENDCHAR
STARTCHAR char57621
ENCODING 57621
SWIDTH 1152 0
DWIDTH 12 0
BBX 12 13 0 -1
BITMAP
0000
0000
0000
0000
3F80
2080
2CC0
2080
3F80
0000
0000
0000
0000
ENDCHAR
STARTCHAR char57622
ENCODING 57622
SWIDTH 1152 0
DWIDTH 12 0
BBX 12 13 0 -1
BITMAP
0000
0000
0000
0000
3F80
2080
2EC0
2080
3F80
0000
0000
0000
0000
ENDCHAR
STARTCHAR char57623
ENCODING 57623
SWIDTH 1152 0
DWIDTH 12 0
BBX 12 13 0 -1
BITMAP
0000
0000
0000
0000
1FC0
1040
3040
1040
1FC0
0000
0000
0000
0000
ENDCHAR
STARTCHAR char57624
ENCODING 57624
SWIDTH 1152 0
DWIDTH 12 0
BBX 12 13 0 -1
BITMAP
0000
0000
0000
0000
1FC0
1040
3140
1040
1FC0
0000
0000
0000
0000
ENDCHAR
STARTCHAR char57625
ENCODING 57625
SWIDTH 1152 0
DWIDTH 12 0
BBX 12 13 0 -1
BITMAP
0000
0000
0000
0000
1FC0
1040
3340
1040
1FC0
0000
0000
0000
0000
ENDCHAR
STARTCHAR char57626
ENCODING 57626
SWIDTH 1152 0
DWIDTH 12 0
BBX 12 13 0 -1
BITMAP
0000
0000
0000
0000
1FC0
1040
3740
1040
1FC0
0000
0000
0000
0000
ENDCHAR
STARTCHAR char57627
ENCODING 57627
SWIDTH 1152 0
DWIDTH 12 0
BBX 12 13 0 -1
BITMAP
0000
0000
0200
1300
22C0
2A40
2A40
22C0
1300
0200
0000
0000
0000
ENDCHAR
STARTCHAR char57628
ENCODING 57628
SWIDTH 1152 0
DWIDTH 12 0
BBX 12 13 0 -1
BITMAP
0000
0000
0000
0200
1300
22C0
2A40
22C0
1300
0200
0000
0000
0000
ENDCHAR
STARTCHAR char57629
ENCODING 57629
SWIDTH 1152 0
DWIDTH 12 0
BBX 12 13 0 -1
BITMAP
0000
0000
0400
0600
15C0
1440
1440
15C0
0600
0400
0000
0000
0000
ENDCHAR
STARTCHAR char57630
ENCODING 57630
SWIDTH 1152 0
DWIDTH 12 0
BBX 12 13 0 -1
BITMAP
0000
0000
0000
0400
0600
15C0
1440
15C0
0600
0400
0000
0000
0000
ENDCHAR
STARTCHAR char57631
ENCODING 57631
SWIDTH 1152 0
DWIDTH 12 0
BBX 12 13 0 -1
BITMAP
0000
0000
0000
0000
0080
1FC0
0080
0800
1FC0
0800
0000
0000
0000
ENDCHAR
STARTCHAR char57632
ENCODING 57632
SWIDTH 1152 0
DWIDTH 12 0
BBX 12 13 0 -1
BITMAP
0000
0000
0000
1FC0
1040
18C0
1740
1040
1040
1FC0
0000
0000
0000
ENDCHAR
STARTCHAR char57633
ENCODING 57633
SWIDTH 1152 0
DWIDTH 12 0
BBX 12 13 0 -1
BITMAP
0000
0000
0000
1FC0
0F80
1740
18C0
1FC0
1FC0
1FC0
0000
0000
0000
ENDCHAR
STARTCHAR char57634
ENCODING 57634
SWIDTH 1152 0
DWIDTH 12 0
BBX 12 13 0 -1
BITMAP
0000
0000
0000
1FC0
1040
18C0
1740
1040
1FC0
0000
0000
0000
0000
ENDCHAR
STARTCHAR char57635
ENCODING 57635
SWIDTH 1152 0
DWIDTH 12 0
BBX 12 13 0 -1
BITMAP
0000
0000
0000
1FC0
0F80
1740
18C0
1FC0
1FC0
0000
0000
0000
0000
ENDCHAR
STARTCHAR char57636
ENCODING 57636
SWIDTH 1152 0
DWIDTH 12 0
BBX 12 13 0 -1
BITMAP
0000
0000
0000
1FC0
18C0
1540
1240
1040
1040
1FC0
0000
0000
0000
ENDCHAR
STARTCHAR char57637
ENCODING 57637
SWIDTH 1152 0
DWIDTH 12 0
BBX 12 13 0 -1
BITMAP
0000
0000
0000
1FC0
18C0
1540
1240
1040
1FC0
0000
0000
0000
0000
ENDCHAR
STARTCHAR char57638
ENCODING 57638
SWIDTH 1152 0
DWIDTH 12 0
BBX 12 13 0 -1
BITMAP
0000
0000
0000
0000
1FC0
18C0
1740
1040
1FC0
0000
0000
0000
0000
ENDCHAR
STARTCHAR char57639
ENCODING 57639
SWIDTH 1152 0
DWIDTH 12 0
BBX 12 13 0 -1
BITMAP
0000
0000
0000
0000
1FC0
0F80
1740
18C0
1FC0
0000
0000
0000
0000
ENDCHAR
STARTCHAR char57640
ENCODING 57640
SWIDTH 1152 0
DWIDTH 12 0
BBX 12 13 0 -1
BITMAP
0000
0000
0000
0700
0880
1240
1340
1040
0880
0700
0000
0000
0000
ENDCHAR
STARTCHAR char57641
ENCODING 57641
SWIDTH 1152 0
DWIDTH 12 0
BBX 12 13 0 -1
BITMAP
0000
0000
0000
0200
0500
0A80
1340
0880
0500
0200
0000
0000
0000
ENDCHAR
STARTCHAR char57642
ENCODING 57642
SWIDTH 1152 0
DWIDTH 12 0
BBX 12 13 0 -1
BITMAP
0000
0000
0000
1FC0
1040
1240
1340
1040
1040
1FC0
0000
0000
0000
ENDCHAR
STARTCHAR char57643
ENCODING 57643
SWIDTH 1152 0
DWIDTH 12 0
BBX 12 13 0 -1
BITMAP
0000
0000
0200
0700
0F80
0200
0200
0200
0200
0200
0000
0000
0000
ENDCHAR
STARTCHAR char57644
ENCODING 57644
SWIDTH 1152 0
DWIDTH 12 0
BBX 12 13 0 -1
BITMAP
0000
0000
0200
0200
0200
0200
0200
0F80
0700
0200
0000
0000
0000
ENDCHAR
STARTCHAR char57645
ENCODING 57645
SWIDTH 1152 0
DWIDTH 12 0
BBX 12 13 0 -1
BITMAP
0000
0000
0000
0100
0180
3FC0
0180
0100
0000
0000
0000
0000
0000
ENDCHAR
STARTCHAR char57646
ENCODING 57646
SWIDTH 1152 0
DWIDTH 12 0
BBX 12 13 0 -1
BITMAP
0000
0000
0000
0800
1800
3FC0
1800
0800
0000
0000
0000
0000
0000
ENDCHAR
STARTCHAR char57647
ENCODING 57647
SWIDTH 1152 0
DWIDTH 12 0
BBX 12 13 0 -1
BITMAP
0000
0000
0900
0B80
0900
0900
0900
0900
1D00
0900
0000
0000
0000
ENDCHAR
STARTCHAR char57648
ENCODING 57648
SWIDTH 1152 0
DWIDTH 12 0
BBX 12 13 0 -1
BITMAP
0000
0000
3FC0
2040
2040
2040
2040
2040
2040
3FC0
0000
0000
0000
ENDCHAR
STARTCHAR char57649
ENCODING 57649
SWIDTH 1152 0
DWIDTH 12 0
BBX 12 13 0 -1
BITMAP
0000
0000
3FC0
2240
23C0
2240
2240
23C0
2240
3FC0
0000
0000
0000
ENDCHAR
STARTCHAR char57650
ENCODING 57650
SWIDTH 1152 0
DWIDTH 12 0
BBX 12 13 0 -1
BITMAP
0000
0000
3FC0
2040
2040
2040
3FC0
2940
2940
3FC0
0000
0000
0000
ENDCHAR
STARTCHAR char57651
ENCODING 57651
SWIDTH 1152 0
DWIDTH 12 0
BBX 12 13 0 -1
BITMAP
0000
0000
3FC0
2040
2040
3FC0
2040
3FC0
2040
3FC0
0000
0000
0000
ENDCHAR
STARTCHAR char57652
ENCODING 57652
SWIDTH 1152 0
DWIDTH 12 0
BBX 12 13 0 -1
BITMAP
0000
0000
3FC0
2940
3FC0
2940
2940
3FC0
2940
3FC0
0000
0000
0000
ENDCHAR
STARTCHAR char57653
ENCODING 57653
SWIDTH 1152 0
DWIDTH 12 0
BBX 12 13 0 -1
BITMAP
0000
0000
3E00
2200
2200
22C0
3E40
0040
0440
07C0
0000
0000
0000
ENDCHAR
STARTCHAR char57654
ENCODING 57654
SWIDTH 1152 0
DWIDTH 12 0
BBX 12 13 0 -1
BITMAP
0000
0000
3FC0
2440
2440
27C0
2540
25C0
2540
3FC0
0000
0000
0000
ENDCHAR
STARTCHAR char57655
ENCODING 57655
SWIDTH 1152 0
DWIDTH 12 0
BBX 12 13 0 -1
BITMAP
0000
0000
3FC0
2440
2440
27C0
2540
2740
2540
3FC0
0000
0000
0000
ENDCHAR
STARTCHAR char57656
ENCODING 57656
SWIDTH 1152 0
DWIDTH 12 0
BBX 12 13 0 -1
BITMAP
0000
0000
3FC0
2440
27C0
2440
3C40
27C0
2440
3FC0
0000
0000
0000
ENDCHAR
STARTCHAR char57657
ENCODING 57657
SWIDTH 1152 0
DWIDTH 12 0
BBX 12 13 0 -1
BITMAP
0000
0000
3FC0
2240
2240
2240
3FC0
2940
2940
3FC0
0000
0000
0000
ENDCHAR
STARTCHAR char57658
ENCODING 57658
SWIDTH 1152 0
DWIDTH 12 0
BBX 12 13 0 -1
BITMAP
0000
0000
3FC0
2240
2240
2240
3E40
2040
2040
3FC0
0000
0000
0000
ENDCHAR
STARTCHAR char57659
ENCODING 57659
SWIDTH 1152 0
DWIDTH 12 0
BBX 12 13 0 -1
BITMAP
0000
0000
0000
0200
0700
0F80
0200
0200
0200
0200
0000
0000
0000
ENDCHAR
STARTCHAR char57660
ENCODING 57660
SWIDTH 1152 0
DWIDTH 12 0
BBX 12 13 0 -1
BITMAP
0000
0000
0000
0200
0200
0200
0200
0F80
0700
0200
0000
0000
0000
ENDCHAR
STARTCHAR char57661
ENCODING 57661
SWIDTH 1152 0
DWIDTH 12 0
BBX 12 13 0 -1
BITMAP
0000
0000
0000
0000
0200
0300
3F80
0300
0200
0000
0000
0000
0000
ENDCHAR
STARTCHAR char57662
ENCODING 57662
SWIDTH 1152 0
DWIDTH 12 0
BBX 12 13 0 -1
BITMAP
0000
0000
0000
0000
0800
1800
3F80
1800
0800
0000
0000
0000
0000
ENDCHAR
STARTCHAR char57663
ENCODING 57663
SWIDTH 1152 0
DWIDTH 12 0
BBX 12 13 0 -1
BITMAP
0000
0000
0000
0000
0080
3FC0
0080
1000
3FC0
1000
0000
0000
0000
ENDCHAR
STARTCHAR char57664
ENCODING 57664
SWIDTH 1152 0
DWIDTH 12 0
BBX 12 13 0 -1
BITMAP
0000
0000
0700
0880
1540
1540
1040
1040
1AC0
1540
0000
0000
0000
ENDCHAR
STARTCHAR char57665
ENCODING 57665
SWIDTH 1152 0
DWIDTH 12 0
BBX 12 13 0 -1
BITMAP
0000
0000
0000
0700
0880
1540
1540
1040
1AC0
1540
0000
0000
0000
ENDCHAR
STARTCHAR char57666
ENCODING 57666
SWIDTH 1152 0
DWIDTH 12 0
BBX 12 13 0 -1
BITMAP
0000
0000
0700
0880
1540
1040
1040
1040
1AC0
1540
0000
0000
0000
ENDCHAR
STARTCHAR char57667
ENCODING 57667
SWIDTH 1152 0
DWIDTH 12 0
BBX 12 13 0 -1
BITMAP
0000
0000
0000
0700
0880
1540
1040
1040
1AC0
1540
0000
0000
0000
ENDCHAR
STARTCHAR char57668
ENCODING 57668
SWIDTH 1152 0
DWIDTH 12 0
BBX 12 13 0 -1
BITMAP
0000
0000
0000
1FC0
1040
1040
1740
1540
1540
0FC0
0000
0000
0000
ENDCHAR
STARTCHAR char57669
ENCODING 57669
SWIDTH 1152 0
DWIDTH 12 0
BBX 12 13 0 -1
BITMAP
0000
0000
0000
1FC0
1040
1040
1740
1740
1740
0FC0
0000
0000
0000
ENDCHAR
STARTCHAR char57670
ENCODING 57670
SWIDTH 1152 0
DWIDTH 12 0
BBX 12 13 0 -1
BITMAP
0000
0000
3FC0
2040
2040
2040
2F40
2940
2940
1FC0
0000
0000
0000
ENDCHAR
STARTCHAR char57671
ENCODING 57671
SWIDTH 1152 0
DWIDTH 12 0
BBX 12 13 0 -1
BITMAP
0000
0000
3FC0
2040
2040
2040
2F40
2B40
2B40
1FC0
0000
0000
0000
ENDCHAR
STARTCHAR char57672
ENCODING 57672
SWIDTH 1152 0
DWIDTH 12 0
BBX 12 13 0 -1
BITMAP
0000
0000
0000
0700
0700
1FC0
1FC0
1540
1FC0
1FC0
0000
0000
0000
ENDCHAR
STARTCHAR char57673
ENCODING 57673
SWIDTH 1152 0
DWIDTH 12 0
BBX 12 13 0 -1
BITMAP
0000
0000
0700
0700
1FC0
1FC0
1FC0
1540
1FC0
1FC0
0000
0000
0000
ENDCHAR
STARTCHAR char57674
ENCODING 57674
SWIDTH 1152 0
DWIDTH 12 0
BBX 12 13 0 -1
BITMAP
0000
0000
0000
3FC0
2040
2040
2040
3FC0
0600
1F80
0000
0000
0000
ENDCHAR
STARTCHAR char57675
ENCODING 57675
SWIDTH 1152 0
DWIDTH 12 0
BBX 12 13 0 -1
BITMAP
0000
0000
1F80
1F80
0000
0F00
0F00
0000
0600
0600
0000
0000
0000
ENDCHAR
STARTCHAR char57676
ENCODING 57676
SWIDTH 1152 0
DWIDTH 12 0
BBX 12 13 0 -1
BITMAP
0000
0000
0000
00C0
06C0
36C0
36C0
06C0
00C0
0000
0000
0000
0000
ENDCHAR
STARTCHAR char57677
ENCODING 57677
SWIDTH 1152 0
DWIDTH 12 0
BBX 12 13 0 -1
BITMAP
0000
0000
0000
0F00
1B80
3F00
3E00
3C00
1F80
0F00
0000
0000
0000
ENDCHAR
STARTCHAR char57678
ENCODING 57678
SWIDTH 1152 0
DWIDTH 12 0
BBX 12 13 0 -1
BITMAP
0000
0000
0000
0180
0780
1F80
3F80
1F80
0780
0180
0000
0000
0000
ENDCHAR
STARTCHAR char57679
ENCODING 57679
SWIDTH 1152 0
DWIDTH 12 0
BBX 12 13 0 -1
BITMAP
0000
0000
0000
3000
3C00
3F00
3F80
3F00
3C00
3000
0000
0000
0000
ENDCHAR
STARTCHAR char57680
ENCODING 57680
SWIDTH 1152 0
DWIDTH 12 0
BBX 12 13 0 -1
BITMAP
0000
0000
0000
0600
0B00
1B80
38C0
1F80
0F00
0600
0000
0000
0000
ENDCHAR
STARTCHAR char57681
ENCODING 57681
SWIDTH 1152 0
DWIDTH 12 0
BBX 12 13 0 -1
BITMAP
0000
0000
0000
0700
0D80
1DC0
1C40
1FC0
0F80
0700
0000
0000
0000
ENDCHAR
STARTCHAR char57682
ENCODING 57682
SWIDTH 1152 0
DWIDTH 12 0
BBX 12 13 0 -1
BITMAP
0000
0000
0000
0400
0C80
3C40
3D40
3C40
0C80
0400
0000
0000
0000
ENDCHAR
STARTCHAR char57683
ENCODING 57683
SWIDTH 1152 0
DWIDTH 12 0
BBX 12 13 0 -1
BITMAP
0000
0000
0600
0F00
1F80
3FC0
3FC0
1F80
0600
0F00
0000
0000
0000
ENDCHAR
STARTCHAR char57684
ENCODING 57684
SWIDTH 1152 0
DWIDTH 12 0
BBX 12 13 0 -1
BITMAP
0000
0000
0000
0600
0F00
1F80
3FC0
1F80
0600
0F00
0000
0000
0000
ENDCHAR
STARTCHAR char57685
ENCODING 57685
SWIDTH 1152 0
DWIDTH 12 0
BBX 12 13 0 -1
BITMAP
0000
0000
0000
0600
0F00
1F80
3FC0
0F00
0F00
0F00
0000
0000
0000
ENDCHAR
STARTCHAR char57686
ENCODING 57686
SWIDTH 1152 0
DWIDTH 12 0
BBX 12 13 0 -1
BITMAP
0000
0000
0000
0F00
0F00
0F00
3FC0
1F80
0F00
0600
0000
0000
0000
ENDCHAR
STARTCHAR char57687
ENCODING 57687
SWIDTH 1152 0
DWIDTH 12 0
BBX 12 13 0 -1
BITMAP
0000
0000
0000
0200
0300
1F80
1FC0
1F80
0300
0200
0000
0000
0000
ENDCHAR
STARTCHAR char57688
ENCODING 57688
SWIDTH 1152 0
DWIDTH 12 0
BBX 12 13 0 -1
BITMAP
0000
0000
0000
0400
0C00
1F80
3F80
1F80
0C00
0400
0000
0000
0000
ENDCHAR
STARTCHAR char57689
ENCODING 57689
SWIDTH 1152 0
DWIDTH 12 0
BBX 12 13 0 -1
BITMAP
0000
0000
0000
0600
0F00
1F80
3FC0
0000
3FC0
0000
0000
0000
0000
ENDCHAR
STARTCHAR char57690
ENCODING 57690
SWIDTH 1152 0
DWIDTH 12 0
BBX 12 13 0 -1
BITMAP
0000
0000
0000
0200
0700
0F80
1FC0
0000
1FC0
0000
0000
0000
0000
ENDCHAR
STARTCHAR char57691
ENCODING 57691
SWIDTH 1152 0
DWIDTH 12 0
BBX 12 13 0 -1
BITMAP
0000
0000
0000
0000
3F80
2080
20C0
20C0
2080
3F80
0000
0000
0000
ENDCHAR
STARTCHAR char57692
ENCODING 57692
SWIDTH 1152 0
DWIDTH 12 0
BBX 12 13 0 -1
BITMAP
0000
0000
0000
0000
3F80
2080
28C0
2CC0
2080
3F80
0000
0000
0000
ENDCHAR
STARTCHAR char57693
ENCODING 57693
SWIDTH 1152 0
DWIDTH 12 0
BBX 12 13 0 -1
BITMAP
0000
0000
0000
0000
3F80
2080
2CC0
2EC0
2080
3F80
0000
0000
0000
ENDCHAR
STARTCHAR char57694
ENCODING 57694
SWIDTH 1152 0
DWIDTH 12 0
BBX 12 13 0 -1
BITMAP
0000
0000
0000
0000
3F80
2080
2EC0
2EC0
2080
3F80
0000
0000
0000
ENDCHAR
STARTCHAR char57695
ENCODING 57695
SWIDTH 1152 0
DWIDTH 12 0
BBX 12 13 0 -1
BITMAP
0000
0000
0000
0E00
1B00
1B00
1F00
1B00
1B00
0E00
0000
0000
0000
ENDCHAR
STARTCHAR char57696
ENCODING 57696
SWIDTH 1152 0
DWIDTH 12 0
BBX 12 13 0 -1
BITMAP
0000
0000
0000
0600
0E00
0600
0600
0600
0600
0F00
0000
0000
0000
ENDCHAR
STARTCHAR char57697
ENCODING 57697
SWIDTH 1152 0
DWIDTH 12 0
BBX 12 13 0 -1
BITMAP
0000
0000
0000
0700
0D80
0180
0300
0600
0C00
0F80
0000
0000
0000
ENDCHAR
STARTCHAR char57698
ENCODING 57698
SWIDTH 1152 0
DWIDTH 12 0
BBX 12 13 0 -1
BITMAP
0000
0000
0000
0700
0D80
0180
0700
0180
0D80
0700
0000
0000
0000
ENDCHAR
STARTCHAR char57699
ENCODING 57699
SWIDTH 1152 0
DWIDTH 12 0
BBX 12 13 0 -1
BITMAP
0000
0000
0000
0300
0700
0B00
1300
1F80
0300
0300
0000
0000
0000
ENDCHAR
STARTCHAR char57700
ENCODING 57700
SWIDTH 1152 0
DWIDTH 12 0
BBX 12 13 0 -1
BITMAP
0000
0000
0000
0F80
0C00
0F00
0180
0180
0D80
0700
0000
0000
0000
ENDCHAR
STARTCHAR char57701
ENCODING 57701
SWIDTH 1152 0
DWIDTH 12 0
BBX 12 13 0 -1
BITMAP
0000
0000
0000
0300
0600
0C00
0F00
0D80
0D80
0700
0000
0000
0000
ENDCHAR
STARTCHAR char57702
ENCODING 57702
SWIDTH 1152 0
DWIDTH 12 0
BBX 12 13 0 -1
BITMAP
0000
0000
0000
0F80
0180
0300
0300
0600
0600
0600
0000
0000
0000
ENDCHAR
STARTCHAR char57703
ENCODING 57703
SWIDTH 1152 0
DWIDTH 12 0
BBX 12 13 0 -1
BITMAP
0000
0000
0000
0700
0D80
0D80
0700
0D80
0D80
0700
0000
0000
0000
ENDCHAR
STARTCHAR char57704
ENCODING 57704
SWIDTH 1152 0
DWIDTH 12 0
BBX 12 13 0 -1
BITMAP
0000
0000
0000
0700
0D80
0D80
0780
0180
0300
0600
0000
0000
0000
ENDCHAR
STARTCHAR char57705
ENCODING 57705
SWIDTH 1152 0
DWIDTH 12 0
BBX 12 13 0 -1
BITMAP
0000
0000
0F00
1980
1980
1B80
1D80
1980
1980
0F00
0000
0000
0000
ENDCHAR
STARTCHAR char57706
ENCODING 57706
SWIDTH 1152 0
DWIDTH 12 0
BBX 12 13 0 -1
BITMAP
0000
0000
0600
0E00
0600
0600
0600
0600
0600
0F00
0000
0000
0000
ENDCHAR
STARTCHAR char57707
ENCODING 57707
SWIDTH 1152 0
DWIDTH 12 0
BBX 12 13 0 -1
BITMAP
0000
0000
0F00
1980
0180
0300
0600
0C00
1800
1F80
0000
0000
0000
ENDCHAR
STARTCHAR char57708
ENCODING 57708
SWIDTH 1152 0
DWIDTH 12 0
BBX 12 13 0 -1
BITMAP
0000
0000
0F00
1980
0180
0700
0180
0180
1980
0F00
0000
0000
0000
ENDCHAR
STARTCHAR char57709
ENCODING 57709
SWIDTH 1152 0
DWIDTH 12 0
BBX 12 13 0 -1
BITMAP
0000
0000
0300
0700
0B00
1300
1F80
0300
0300
0300
0000
0000
0000
ENDCHAR
STARTCHAR char57710
ENCODING 57710
SWIDTH 1152 0
DWIDTH 12 0
BBX 12 13 0 -1
BITMAP
0000
0000
1F80
1800
1800
1F00
0180
0180
1980
0F00
0000
0000
0000
ENDCHAR
STARTCHAR char57711
ENCODING 57711
SWIDTH 1152 0
DWIDTH 12 0
BBX 12 13 0 -1
BITMAP
0000
0000
0700
0C00
1800
1F00
1980
1980
1980
0F00
0000
0000
0000
ENDCHAR
STARTCHAR char57712
ENCODING 57712
SWIDTH 1152 0
DWIDTH 12 0
BBX 12 13 0 -1
BITMAP
0000
0000
1F80
0180
0180
0300
0300
0600
0600
0600
0000
0000
0000
ENDCHAR
STARTCHAR char57713
ENCODING 57713
SWIDTH 1152 0
DWIDTH 12 0
BBX 12 13 0 -1
BITMAP
0000
0000
0F00
1980
1980
0F00
1980
1980
1980
0F00
0000
0000
0000
ENDCHAR
STARTCHAR char57714
ENCODING 57714
SWIDTH 1152 0
DWIDTH 12 0
BBX 12 13 0 -1
BITMAP
0000
0000
0F00
1980
1980
1980
0F80
0180
0300
0E00
0000
0000
0000
ENDCHAR
STARTCHAR char57715
ENCODING 57715
SWIDTH 1152 0
DWIDTH 12 0
BBX 12 13 0 -1
BITMAP
0000
0000
0000
1F80
1980
1B80
1F80
1D80
1980
1F80
0000
0000
0000
ENDCHAR
STARTCHAR char57716
ENCODING 57716
SWIDTH 1152 0
DWIDTH 12 0
BBX 12 13 0 -1
BITMAP
0000
0000
0000
0600
0E00
0600
0600
0600
0600
0600
0000
0000
0000
ENDCHAR
STARTCHAR char57717
ENCODING 57717
SWIDTH 1152 0
DWIDTH 12 0
BBX 12 13 0 -1
BITMAP
0000
0000
0000
1F80
0180
0180
1F80
1800
1800
1F80
0000
0000
0000
ENDCHAR
STARTCHAR char57718
ENCODING 57718
SWIDTH 1152 0
DWIDTH 12 0
BBX 12 13 0 -1
BITMAP
0000
0000
0000
1F80
0180
0180
1F80
0180
0180
1F80
0000
0000
0000
ENDCHAR
STARTCHAR char57719
ENCODING 57719
SWIDTH 1152 0
DWIDTH 12 0
BBX 12 13 0 -1
BITMAP
0000
0000
0000
1980
1980
1980
1F80
0180
0180
0180
0000
0000
0000
ENDCHAR
STARTCHAR char57720
ENCODING 57720
SWIDTH 1152 0
DWIDTH 12 0
BBX 12 13 0 -1
BITMAP
0000
0000
0000
1F80
1800
1800
1F80
0180
0180
1F80
0000
0000
0000
ENDCHAR
STARTCHAR char57721
ENCODING 57721
SWIDTH 1152 0
DWIDTH 12 0
BBX 12 13 0 -1
BITMAP
0000
0000
0000
1F80
1800
1800
1F80
1980
1980
1F80
0000
0000
0000
ENDCHAR
STARTCHAR char57722
ENCODING 57722
SWIDTH 1152 0
DWIDTH 12 0
BBX 12 13 0 -1
BITMAP
0000
0000
0000
1F80
0180
0180
0180
0180
0180
0180
0000
0000
0000
ENDCHAR
STARTCHAR char57723
ENCODING 57723
SWIDTH 1152 0
DWIDTH 12 0
BBX 12 13 0 -1
BITMAP
0000
0000
0000
1F80
1980
1980
0F00
1980
1980
1F80
0000
0000
0000
ENDCHAR
STARTCHAR char57724
ENCODING 57724
SWIDTH 1152 0
DWIDTH 12 0
BBX 12 13 0 -1
BITMAP
0000
0000
0000
1F80
1980
1980
1F80
0180
0180
0180
0000
0000
0000
ENDCHAR
STARTCHAR char57725
ENCODING 57725
SWIDTH 1152 0
DWIDTH 12 0
BBX 12 13 0 -1
BITMAP
0000
0000
1F80
1980
1B80
1B80
1D80
1D80
1980
1F80
0000
0000
0000
ENDCHAR
STARTCHAR char57726
ENCODING 57726
SWIDTH 1152 0
DWIDTH 12 0
BBX 12 13 0 -1
BITMAP
0000
0000
0300
0700
0F00
0300
0300
0300
0300
0300
0000
0000
0000
ENDCHAR
STARTCHAR char57727
ENCODING 57727
SWIDTH 1152 0
DWIDTH 12 0
BBX 12 13 0 -1
BITMAP
0000
0000
1F80
0180
0180
1F80
1800
1800
1800
1F80
0000
0000
0000
ENDCHAR
STARTCHAR char57728
ENCODING 57728
SWIDTH 1152 0
DWIDTH 12 0
BBX 12 13 0 -1
BITMAP
0000
0000
1F80
0180
0180
1F80
0180
0180
0180
1F80
0000
0000
0000
ENDCHAR
STARTCHAR char57729
ENCODING 57729
SWIDTH 1152 0
DWIDTH 12 0
BBX 12 13 0 -1
BITMAP
0000
0000
1980
1980
1980
1F80
0180
0180
0180
0180
0000
0000
0000
ENDCHAR
STARTCHAR char57730
ENCODING 57730
SWIDTH 1152 0
DWIDTH 12 0
BBX 12 13 0 -1
BITMAP
0000
0000
1F80
1800
1800
1F80
0180
0180
0180
1F80
0000
0000
0000
ENDCHAR
STARTCHAR char57731
ENCODING 57731
SWIDTH 1152 0
DWIDTH 12 0
BBX 12 13 0 -1
BITMAP
0000
0000
1F80
1800
1800
1F80
1980
1980
1980
1F80
0000
0000
0000
ENDCHAR
STARTCHAR char57732
ENCODING 57732
SWIDTH 1152 0
DWIDTH 12 0
BBX 12 13 0 -1
BITMAP
0000
0000
1F80
0180
0180
0180
0180
0180
0180
0180
0000
0000
0000
ENDCHAR
STARTCHAR char57733
ENCODING 57733
SWIDTH 1152 0
DWIDTH 12 0
BBX 12 13 0 -1
BITMAP
0000
0000
1F80
1980
1980
0F00
1980
1980
1980
1F80
0000
0000
0000
ENDCHAR
STARTCHAR char57734
ENCODING 57734
SWIDTH 1152 0
DWIDTH 12 0
BBX 12 13 0 -1
BITMAP
0000
0000
1F80
1980
1980
1F80
0180
0180
0180
0180
0000
0000
0000
ENDCHAR
STARTCHAR char57735
ENCODING 57735
SWIDTH 1152 0
DWIDTH 12 0
BBX 12 13 0 -1
BITMAP
0000
0000
1FC0
1DC0
19C0
1DC0
1DC0
1DC0
18C0
1FC0
0000
0000
0000
ENDCHAR
STARTCHAR char57736
ENCODING 57736
SWIDTH 1152 0
DWIDTH 12 0
BBX 12 13 0 -1
BITMAP
0000
0000
1FC0
18C0
1740
1EC0
1DC0
1BC0
1040
1FC0
0000
0000
0000
ENDCHAR
STARTCHAR char57737
ENCODING 57737
SWIDTH 1152 0
DWIDTH 12 0
BBX 12 13 0 -1
BITMAP
0000
0000
1FC0
18C0
1740
1CC0
1F40
1740
18C0
1FC0
0000
0000
0000
ENDCHAR
STARTCHAR char57738
ENCODING 57738
SWIDTH 1152 0
DWIDTH 12 0
BBX 12 13 0 -1
BITMAP
0000
0000
1FC0
1EC0
1CC0
1AC0
1040
1EC0
1EC0
1FC0
0000
0000
0000
ENDCHAR
STARTCHAR char57739
ENCODING 57739
SWIDTH 1152 0
DWIDTH 12 0
BBX 12 13 0 -1
BITMAP
0000
0000
1FC0
1040
17C0
10C0
1F40
1740
18C0
1FC0
0000
0000
0000
ENDCHAR
STARTCHAR char57740
ENCODING 57740
SWIDTH 1152 0
DWIDTH 12 0
BBX 12 13 0 -1
BITMAP
0000
0000
1FC0
18C0
17C0
10C0
1740
1740
18C0
1FC0
0000
0000
0000
ENDCHAR
STARTCHAR char57741
ENCODING 57741
SWIDTH 1152 0
DWIDTH 12 0
BBX 12 13 0 -1
BITMAP
0000
0000
1FC0
1040
1F40
1EC0
1EC0
1DC0
1DC0
1FC0
0000
0000
0000
ENDCHAR
STARTCHAR char57742
ENCODING 57742
SWIDTH 1152 0
DWIDTH 12 0
BBX 12 13 0 -1
BITMAP
0000
0000
1FC0
18C0
1740
18C0
1740
1740
18C0
1FC0
0000
0000
0000
ENDCHAR
STARTCHAR char57743
ENCODING 57743
SWIDTH 1152 0
DWIDTH 12 0
BBX 12 13 0 -1
BITMAP
0000
0000
1FC0
18C0
1740
1740
1840
1F40
18C0
1FC0
0000
0000
0000
ENDCHAR
STARTCHAR char57744
ENCODING 57744
SWIDTH 1152 0
DWIDTH 12 0
BBX 12 13 0 -1
BITMAP
0000
0000
0000
0000
0000
0600
0F00
0F00
0600
0000
0000
0000
0000
ENDCHAR
STARTCHAR char57745
ENCODING 57745
SWIDTH 1152 0
DWIDTH 12 0
BBX 12 13 0 -1
BITMAP
0000
0000
0000
0000
0600
0F00
0F00
0600
0000
0000
0000
0000
0000
ENDCHAR
STARTCHAR char57746
ENCODING 57746
SWIDTH 1152 0
DWIDTH 12 0
BBX 12 13 0 -1
BITMAP
0000
0000
0000
0000
0600
0600
0000
0600
0600
0000
0000
0000
0000
ENDCHAR
STARTCHAR char57747
ENCODING 57747
SWIDTH 1152 0
DWIDTH 12 0
BBX 12 13 0 -1
BITMAP
0000
0000
0000
0600
0600
0000
0000
0600
0600
0000
0000
0000
0000
ENDCHAR
STARTCHAR char57748
ENCODING 57748
SWIDTH 1152 0
DWIDTH 12 0
BBX 12 13 0 -1
BITMAP
0000
0000
0000
0000
1980
1980
0000
1980
1980
0000
0000
0000
0000
ENDCHAR
STARTCHAR char57749
ENCODING 57749
SWIDTH 1152 0
DWIDTH 12 0
BBX 12 13 0 -1
BITMAP
0000
0000
0000
1980
1980
0000
0000
1980
1980
0000
0000
0000
0000
ENDCHAR
STARTCHAR char57750
ENCODING 57750
SWIDTH 1152 0
DWIDTH 12 0
BBX 12 13 0 -1
BITMAP
0000
0000
1980
1980
0000
1980
1980
0000
1980
1980
0000
0000
0000
ENDCHAR
STARTCHAR char57751
ENCODING 57751
SWIDTH 1152 0
DWIDTH 12 0
BBX 12 13 0 -1
BITMAP
0000
0000
0140
0140
15C0
1C80
1C80
0880
1F80
1C80
0000
0000
0000
ENDCHAR
STARTCHAR char57752
ENCODING 57752
SWIDTH 1152 0
DWIDTH 12 0
BBX 12 13 0 -1
BITMAP
0000
0000
0080
2340
1D40
1DC0
1C80
0880
1F80
1C80
0000
0000
0000
ENDCHAR
STARTCHAR char57753
ENCODING 57753
SWIDTH 1152 0
DWIDTH 12 0
BBX 12 13 0 -1
BITMAP
0000
0000
0140
2340
1DC0
1C80
1C80
0880
1F80
1C80
0000
0000
0000
ENDCHAR
STARTCHAR char57754
ENCODING 57754
SWIDTH 1152 0
DWIDTH 12 0
BBX 12 13 0 -1
BITMAP
0000
0000
2040
2040
3FC0
1680
36C0
3FC0
1080
1F80
0000
0000
0000
ENDCHAR
STARTCHAR char57755
ENCODING 57755
SWIDTH 1152 0
DWIDTH 12 0
BBX 12 13 0 -1
BITMAP
0000
0000
1F80
3FC0
3FC0
3FC0
3F80
3000
3000
1800
0000
0000
0000
ENDCHAR
STARTCHAR char57756
ENCODING 57756
SWIDTH 1152 0
DWIDTH 12 0
BBX 12 13 0 -1
BITMAP
0000
0000
3E00
2200
27C0
3C40
0C40
0FC0
0900
3FC0
0000
0000
0000
ENDCHAR
STARTCHAR char57757
ENCODING 57757
SWIDTH 1152 0
DWIDTH 12 0
BBX 12 13 0 -1
BITMAP
0000
0000
1080
0900
1F80
1680
3FC0
2940
2F40
0900
0000
0000
0000
ENDCHAR
STARTCHAR char57758
ENCODING 57758
SWIDTH 1152 0
DWIDTH 12 0
BBX 12 13 0 -1
BITMAP
0000
0000
3FC0
3FC0
0600
0600
3FC0
36C0
30C0
3FC0
0000
0000
0000
ENDCHAR
STARTCHAR char57759
ENCODING 57759
SWIDTH 1152 0
DWIDTH 12 0
BBX 12 13 0 -1
BITMAP
0000
0000
1F80
3FC0
3FC0
3FC0
1FC0
0180
0100
0200
0000
0000
0000
ENDCHAR
STARTCHAR char57760
ENCODING 57760
SWIDTH 1152 0
DWIDTH 12 0
BBX 12 13 0 -1
BITMAP
0000
0000
0F00
1980
3DC0
3D40
2940
29C0
1380
0F00
0000
0000
0000
ENDCHAR
STARTCHAR char57761
ENCODING 57761
SWIDTH 1152 0
DWIDTH 12 0
BBX 12 13 0 -1
BITMAP
0000
0000
1F80
3FC0
2040
2840
2440
2840
2040
1F80
0000
0000
0000
ENDCHAR
STARTCHAR char57762
ENCODING 57762
SWIDTH 1152 0
DWIDTH 12 0
BBX 12 13 0 -1
BITMAP
0000
0000
1F80
3FC0
2040
2F40
2040
2F40
2040
1F80
0000
0000
0000
ENDCHAR
STARTCHAR char57763
ENCODING 57763
SWIDTH 1152 0
DWIDTH 12 0
BBX 12 13 0 -1
BITMAP
0000
0000
1F80
3FC0
2040
2940
2040
2F40
2040
1F80
0000
0000
0000
ENDCHAR
STARTCHAR char57764
ENCODING 57764
SWIDTH 1152 0
DWIDTH 12 0
BBX 12 13 0 -1
BITMAP
0000
0000
3DC0
3DC0
3C00
01C0
3DC0
3C00
3DC0
3DC0
0000
0000
0000
ENDCHAR
STARTCHAR char57765
ENCODING 57765
SWIDTH 1152 0
DWIDTH 12 0
BBX 12 13 0 -1
BITMAP
0000
0000
3BC0
3BC0
3BC0
3BC0
0000
36C0
36C0
36C0
0000
0000
0000
ENDCHAR
STARTCHAR char57766
ENCODING 57766
SWIDTH 1152 0
DWIDTH 12 0
BBX 12 13 0 -1
BITMAP
0000
0000
0FC0
0FC0
0840
0840
0840
0840
39C0
39C0
0000
0000
0000
ENDCHAR
STARTCHAR char57767
ENCODING 57767
SWIDTH 1152 0
DWIDTH 12 0
BBX 12 13 0 -1
BITMAP
0000
0000
1F80
3FC0
3FC0
3FC0
3FC0
1F80
0300
0600
0000
0000
0000
ENDCHAR
STARTCHAR char57768
ENCODING 57768
SWIDTH 1152 0
DWIDTH 12 0
BBX 12 13 0 -1
BITMAP
0000
0000
0000
3FE0
2FA0
3760
3AE0
3560
2FA0
3FE0
0000
0000
0000
ENDCHAR
STARTCHAR char57769
ENCODING 57769
SWIDTH 1152 0
DWIDTH 12 0
BBX 12 13 0 -1
BITMAP
1000
1800
1C00
1E00
1F00
1F80
1F80
1F00
1E00
1C00
1800
1000
0000
ENDCHAR
STARTCHAR char57770
ENCODING 57770
SWIDTH 1152 0
DWIDTH 12 0
BBX 12 13 0 -1
BITMAP
1000
0800
0400
0200
0100
0080
0080
0100
0200
0400
0800
1000
0000
ENDCHAR
STARTCHAR char57771
ENCODING 57771
SWIDTH 1152 0
DWIDTH 12 0
BBX 12 13 0 -1
BITMAP
0080
0180
0380
0780
0F80
1F80
1F80
0F80
0780
0380
0180
0080
0000
ENDCHAR
STARTCHAR char57772
ENCODING 57772
SWIDTH 1152 0
DWIDTH 12 0
BBX 12 13 0 -1
BITMAP
0080
0100
0200
0400
0800
1000
1000
0800
0400
0200
0100
0080
0000
ENDCHAR
STARTCHAR char57773
ENCODING 57773
SWIDTH 1152 0
DWIDTH 12 0
BBX 12 13 0 -1
BITMAP
0800
0C00
0E00
0F00
0F80
0F80
0F80
0F80
0F80
0F80
0F80
0F80
0000
ENDCHAR
STARTCHAR char57774
ENCODING 57774
SWIDTH 1152 0
DWIDTH 12 0
BBX 12 13 0 -1
BITMAP
0F80
0F80
0F80
0F80
0F80
0F80
0F80
0F80
0780
0380
0180
0080
0000
ENDCHAR
STARTCHAR char57775
ENCODING 57775
SWIDTH 1152 0
DWIDTH 12 0
BBX 12 13 0 -1
BITMAP
0000
0000
0000
1FC0
2020
0F80
1040
0700
0000
0200
0000
0000
0000
ENDCHAR
STARTCHAR char57776
ENCODING 57776
SWIDTH 1152 0
DWIDTH 12 0
BBX 12 13 0 -1
BITMAP
0000
0000
0F00
1F80
1080
1680
1680
1680
1080
1F80
0000
0000
0000
ENDCHAR
STARTCHAR char57777
ENCODING 57777
SWIDTH 1152 0
DWIDTH 12 0
BBX 12 13 0 -1
BITMAP
0200
0200
0200
0200
0200
0200
0200
0200
0200
0200
0200
0200
0000
ENDCHAR
STARTCHAR char57778
ENCODING 57778
SWIDTH 1152 0
DWIDTH 12 0
BBX 12 13 0 -1
BITMAP
0000
0000
3FC0
07C0
03C0
1BC0
3D80
3C00
3E00
3FC0
0000
0000
0000
ENDCHAR
STARTCHAR char57779
ENCODING 57779
SWIDTH 1152 0
DWIDTH 12 0
BBX 12 13 0 -1
BITMAP
0000
0000
0300
0500
09C0
3900
3900
09C0
0500
0300
0000
0000
0000
ENDCHAR
STARTCHAR char57780
ENCODING 57780
SWIDTH 1152 0
DWIDTH 12 0
BBX 12 13 0 -1
BITMAP
0000
0000
0200
0200
0700
0700
0D80
0880
1DC0
1040
0000
0000
0000
ENDCHAR
STARTCHAR char57781
ENCODING 57781
SWIDTH 1152 0
DWIDTH 12 0
BBX 12 13 0 -1
BITMAP
0000
0000
0600
1500
0D80
0700
0700
0D80
1500
0600
0000
0000
0000
ENDCHAR
STARTCHAR char57782
ENCODING 57782
SWIDTH 1152 0
DWIDTH 12 0
BBX 12 13 0 -1
BITMAP
0000
0000
30C0
0900
0600
36C0
0F00
1F80
2F40
2640
0000
0000
0000
ENDCHAR
STARTCHAR char57783
ENCODING 57783
SWIDTH 1152 0
DWIDTH 12 0
BBX 12 13 0 -1
BITMAP
0000
0000
30C0
0900
0900
36C0
0F00
1F80
2640
1080
0000
0000
0000
ENDCHAR
STARTCHAR char57784
ENCODING 57784
SWIDTH 1152 0
DWIDTH 12 0
BBX 12 13 0 -1
BITMAP
0000
0000
2040
30C0
2F40
3FC0
2640
3FC0
1F80
2F40
0000
0000
0000
ENDCHAR
STARTCHAR char57785
ENCODING 57785
SWIDTH 1152 0
DWIDTH 12 0
BBX 12 13 0 -1
BITMAP
0000
0000
0F00
1E80
3DC0
3BC0
3840
3FC0
1F80
0F00
0000
0000
0000
ENDCHAR
STARTCHAR char57786
ENCODING 57786
SWIDTH 1152 0
DWIDTH 12 0
BBX 12 13 0 -1
BITMAP
0000
0000
2040
3780
1880
1C80
0E80
1F00
3B80
30C0
0000
0000
0000
ENDCHAR
STARTCHAR char57787
ENCODING 57787
SWIDTH 1152 0
DWIDTH 12 0
BBX 12 13 0 -1
BITMAP
0000
0000
3FC0
2040
2040
2040
2F40
2B40
2B40
1FC0
0000
0000
0000
ENDCHAR
STARTCHAR char57788
ENCODING 57788
SWIDTH 1152 0
DWIDTH 12 0
BBX 12 13 0 -1
BITMAP
0000
0000
0F00
1080
2040
2040
2040
2040
1080
0F00
0000
0000
0000
ENDCHAR
STARTCHAR char57789
ENCODING 57789
SWIDTH 1152 0
DWIDTH 12 0
BBX 12 13 0 -1
BITMAP
0000
0000
0000
3600
1000
1000
0840
27C0
1000
0000
0000
0000
0000
ENDCHAR
STARTCHAR char57790
ENCODING 57790
SWIDTH 1152 0
DWIDTH 12 0
BBX 12 13 0 -1
BITMAP
0000
0000
0000
0000
06C0
0080
0080
2100
3E40
0080
0000
0000
0000
ENDCHAR
STARTCHAR char57791
ENCODING 57791
SWIDTH 1152 0
DWIDTH 12 0
BBX 12 13 0 -1
BITMAP
0000
0000
2040
30C0
2F40
3FC0
2640
36C0
1F80
0600
0000
0000
0000
ENDCHAR
STARTCHAR char57792
ENCODING 57792
SWIDTH 1152 0
DWIDTH 12 0
BBX 12 13 0 -1
BITMAP
0000
0000
1880
2640
0F40
1980
1980
2F00
2640
1180
0000
0000
0000
ENDCHAR
STARTCHAR char57793
ENCODING 57793
SWIDTH 1152 0
DWIDTH 12 0
BBX 12 13 0 -1
BITMAP
0000
0000
23C0
3680
2F00
3980
19C0
0F40
16C0
3C40
0000
0000
0000
ENDCHAR
STARTCHAR char57794
ENCODING 57794
SWIDTH 1152 0
DWIDTH 12 0
BBX 12 13 0 -1
BITMAP
0000
0000
0F00
1F80
3FC0
3FC0
3FC0
3FC0
1F80
0F00
0000
0000
0000
ENDCHAR
STARTCHAR char57795
ENCODING 57795
SWIDTH 1152 0
DWIDTH 12 0
BBX 12 13 0 -1
BITMAP
0000
0000
0F00
1C80
3C40
3C40
3C40
3C40
1C80
0F00
0000
0000
0000
ENDCHAR
STARTCHAR char57796
ENCODING 57796
SWIDTH 1152 0
DWIDTH 12 0
BBX 12 13 0 -1
BITMAP
0000
0000
0F00
1980
3FC0
39C0
39C0
39C0
1980
0F00
0000
0000
0000
ENDCHAR
STARTCHAR char57797
ENCODING 57797
SWIDTH 1152 0
DWIDTH 12 0
BBX 12 13 0 -1
BITMAP
0000
0000
3FC0
39C0
3FC0
39C0
39C0
39C0
39C0
3FC0
0000
0000
0000
ENDCHAR
STARTCHAR char57798
ENCODING 57798
SWIDTH 1152 0
DWIDTH 12 0
BBX 12 13 0 -1
BITMAP
0000
0000
1DC0
1DC0
1DC0
1040
1FC0
1FC0
1FC0
0F80
0000
0000
0000
ENDCHAR
STARTCHAR char57799
ENCODING 57799
SWIDTH 1152 0
DWIDTH 12 0
BBX 12 13 0 -1
BITMAP
0000
0000
3000
3C00
1E00
1F00
0F00
0680
0140
00C0
0000
0000
0000
ENDCHAR
STARTCHAR char57800
ENCODING 57800
SWIDTH 1152 0
DWIDTH 12 0
BBX 12 13 0 -1
BITMAP
0000
0000
0F00
1080
2040
2040
3FC0
0F00
0F00
0F00
0000
0000
0000
ENDCHAR
STARTCHAR char57801
ENCODING 57801
SWIDTH 1152 0
DWIDTH 12 0
BBX 12 13 0 -1
BITMAP
0000
0000
0C80
3240
3240
3A40
3A40
3240
3240
0C80
0000
0000
0000
ENDCHAR
STARTCHAR char57802
ENCODING 57802
SWIDTH 1152 0
DWIDTH 12 0
BBX 12 13 0 -1
BITMAP
0000
0000
1C00
3200
2100
2080
1040
0840
04C0
0380
0000
0000
0000
ENDCHAR
STARTCHAR char57803
ENCODING 57803
SWIDTH 1152 0
DWIDTH 12 0
BBX 12 13 0 -1
BITMAP
0000
0000
0380
0440
08C0
11C0
1F80
1300
2400
3800
0000
0000
0000
ENDCHAR
STARTCHAR char57804
ENCODING 57804
SWIDTH 1152 0
DWIDTH 12 0
BBX 12 13 0 -1
BITMAP
0000
0000
0080
0240
0940
2540
2540
0940
0240
0080
0000
0000
0000
ENDCHAR
STARTCHAR char57805
ENCODING 57805
SWIDTH 1152 0
DWIDTH 12 0
BBX 12 13 0 -1
BITMAP
0000
1540
1540
3FE0
2020
3560
2020
3560
2020
3FE0
0000
0000
0000
ENDCHAR
STARTCHAR char57806
ENCODING 57806
SWIDTH 1152 0
DWIDTH 12 0
BBX 12 13 0 -1
BITMAP
0000
1000
1800
0C00
0C00
0600
0F00
1B00
1980
30C0
0000
0000
0000
ENDCHAR
STARTCHAR char57807
ENCODING 57807
SWIDTH 1152 0
DWIDTH 12 0
BBX 12 13 0 -1
BITMAP
0000
1F00
1100
11C0
1040
1040
1040
1040
1040
1FC0
0000
0000
0000
ENDCHAR
STARTCHAR char57808
ENCODING 57808
SWIDTH 1152 0
DWIDTH 12 0
BBX 12 13 0 -1
BITMAP
0000
0000
0000
FFF0
8010
8050
A2F0
F710
FFB0
FFF0
0000
0000
0000
ENDCHAR
STARTCHAR char57809
ENCODING 57809
SWIDTH 1152 0
DWIDTH 12 0
BBX 12 13 0 -1
BITMAP
0000
7FF0
4010
4410
4610
4710
4610
4410
4010
7FF0
0000
0000
0000
ENDCHAR
STARTCHAR char57810
ENCODING 57810
SWIDTH 1152 0
DWIDTH 12 0
BBX 12 13 0 -1
BITMAP
0000
0000
0000
7FF0
4410
4610
4710
4610
4410
7FF0
0000
0000
0000
ENDCHAR
STARTCHAR char57811
ENCODING 57811
SWIDTH 1152 0
DWIDTH 12 0
BBX 12 13 0 -1
BITMAP
0000
6060
7FE0
7FE0
FFF0
FFF0
C030
D9B0
D9B0
6060
1F80
0000
0000
ENDCHAR
STARTCHAR char57812
ENCODING 57812
SWIDTH 1152 0
DWIDTH 12 0
BBX 12 13 0 -1
BITMAP
0000
0700
0F80
1E40
2020
6DB0
6030
7DB0
2DA0
0D80
0700
0000
0000
ENDCHAR
STARTCHAR char57813
ENCODING 57813
SWIDTH 1152 0
DWIDTH 12 0
BBX 12 13 0 -1
BITMAP
0000
3F00
3D80
3DC0
3C20
3FE0
3060
3FE0
3060
3FE0
3FE0
0000
0000
ENDCHAR
STARTCHAR char57814
ENCODING 57814
SWIDTH 1152 0
DWIDTH 12 0
BBX 12 13 0 -1
BITMAP
0000
7800
7FE0
47E0
4020
4020
4020
4020
4020
7FE0
0000
0000
0000
ENDCHAR
STARTCHAR char57815
ENCODING 57815
SWIDTH 1152 0
DWIDTH 12 0
BBX 12 13 0 -1
BITMAP
0000
0000
7FE0
4020
4020
4020
4020
7FE0
7FE0
0F00
0F00
0000
0000
ENDCHAR
STARTCHAR char57816
ENCODING 57816
SWIDTH 1152 0
DWIDTH 12 0
BBX 12 13 0 -1
BITMAP
0000
0000
7FE0
4020
4020
4020
4020
3FC0
4020
F9F0
FFF0
0000
0000
ENDCHAR
STARTCHAR char57817
ENCODING 57817
SWIDTH 1152 0
DWIDTH 12 0
BBX 12 13 0 -1
BITMAP
0000
0000
7800
4F80
4040
4FE0
5010
6020
4060
7FC0
0000
0000
0000
ENDCHAR
STARTCHAR char57818
ENCODING 57818
SWIDTH 1152 0
DWIDTH 12 0
BBX 12 13 0 -1
BITMAP
0000
FFF0
A010
F090
A390
97D0
BFD0
FFF0
8010
FFF0
0000
0000
0000
ENDCHAR
STARTCHAR char57819
ENCODING 57819
SWIDTH 1152 0
DWIDTH 12 0
BBX 12 13 0 -1
BITMAP
0000
0000
3C00
2600
2700
3F80
1FC0
0FC0
0780
0300
0000
0000
0000
ENDCHAR
STARTCHAR char57820
ENCODING 57820
SWIDTH 1152 0
DWIDTH 12 0
BBX 12 13 0 -1
BITMAP
0000
0000
7B00
4D80
4EC0
7F60
3FB0
1FB0
0F60
06C0
0080
0000
0000
ENDCHAR
STARTCHAR char57821
ENCODING 57821
SWIDTH 1152 0
DWIDTH 12 0
BBX 12 13 0 -1
BITMAP
0000
FFF0
A050
E070
A050
FFF0
A050
E070
A050
FFF0
0000
0000
0000
ENDCHAR
STARTCHAR char57822
ENCODING 57822
SWIDTH 1152 0
DWIDTH 12 0
BBX 12 13 0 -1
BITMAP
0000
FFF0
B550
B550
B550
B550
B550
B550
B550
FFF0
0000
0000
0000
ENDCHAR
STARTCHAR char57823
ENCODING 57823
SWIDTH 1152 0
DWIDTH 12 0
BBX 12 13 0 -1
BITMAP
0000
0000
0FE0
0FE0
1860
1FE0
30E0
3FE0
3FC0
2040
1F80
0000
0000
ENDCHAR
STARTCHAR char57824
ENCODING 57824
SWIDTH 1152 0
DWIDTH 12 0
BBX 12 13 0 -1
BITMAP
0000
0000
7800
7FE0
7FE0
7FE0
7FE0
7FE0
7FE0
7FE0
0000
0000
0000
ENDCHAR
STARTCHAR char57825
ENCODING 57825
SWIDTH 1152 0
DWIDTH 12 0
BBX 12 13 0 -1
BITMAP
0000
0000
7800
7F80
7FC0
7040
6FF0
5FE0
3FC0
7F80
0000
0000
0000
ENDCHAR
STARTCHAR char57826
ENCODING 57826
SWIDTH 1152 0
DWIDTH 12 0
BBX 12 13 0 -1
BITMAP
0000
1FC0
1FC0
1FC0
1FC0
1FC0
1FC0
1DC0
18C0
1040
0000
0000
0000
ENDCHAR
STARTCHAR char57827
ENCODING 57827
SWIDTH 1152 0
DWIDTH 12 0
BBX 12 13 0 -1
BITMAP
0000
1FC0
1040
1040
1040
1040
1240
1540
18C0
1040
0000
0000
0000
ENDCHAR
STARTCHAR char57828
ENCODING 57828
SWIDTH 1152 0
DWIDTH 12 0
BBX 12 13 0 -1
BITMAP
0400
0E00
1F00
1F00
3F80
3780
3780
3780
1F00
0E00
0000
0000
0000
ENDCHAR
STARTCHAR char57829
ENCODING 57829
SWIDTH 1152 0
DWIDTH 12 0
BBX 12 13 0 -1
BITMAP
0060
00F0
01F0
02E0
0740
0F80
1F00
3E00
5C00
6800
7000
0000
0000
ENDCHAR
STARTCHAR char57830
ENCODING 57830
SWIDTH 1152 0
DWIDTH 12 0
BBX 12 13 0 -1
BITMAP
0000
0F80
18C0
3FE0
1040
1540
1540
1540
1040
1FC0
0000
0000
0000
ENDCHAR
STARTCHAR char57831
ENCODING 57831
SWIDTH 1152 0
DWIDTH 12 0
BBX 12 13 0 -1
BITMAP
0000
0000
7FE0
4820
7FE0
59E0
76E0
76E0
79E0
7FE0
0000
0000
0000
ENDCHAR
STARTCHAR char57832
ENCODING 57832
SWIDTH 1152 0
DWIDTH 12 0
BBX 12 13 0 -1
BITMAP
0F00
1F80
3E40
4020
D9B0
C030
F9B0
D9B0
59A0
1980
0F00
0000
0000
ENDCHAR
STARTCHAR char57833
ENCODING 57833
SWIDTH 1152 0
DWIDTH 12 0
BBX 12 13 0 -1
BITMAP
03E0
02E0
0600
79E0
A050
C030
9990
9990
8010
4F20
30C0
0F00
0000
ENDCHAR
STARTCHAR char57834
ENCODING 57834
SWIDTH 1152 0
DWIDTH 12 0
BBX 12 13 0 -1
BITMAP
0000
0000
1F80
0F00
2640
30C0
39C0
39C0
39C0
39C0
0000
0000
0000
ENDCHAR
STARTCHAR char57835
ENCODING 57835
SWIDTH 1152 0
DWIDTH 12 0
BBX 12 13 0 -1
BITMAP
0000
0000
3FC0
7FE0
7BE0
79E0
79E0
7BE0
7FE0
3FC0
0000
0000
0000
ENDCHAR
STARTCHAR char57836
ENCODING 57836
SWIDTH 1152 0
DWIDTH 12 0
BBX 12 13 0 -1
BITMAP
0000
0000
4000
6000
3000
1800
1800
3000
6000
43F0
0000
0000
0000
ENDCHAR
STARTCHAR char57837
ENCODING 57837
SWIDTH 1152 0
DWIDTH 12 0
BBX 12 13 0 -1
BITMAP
0000
3F00
2180
2140
21E0
2020
2FA0
2020
2FA0
2020
3FE0
0000
0000
ENDCHAR
STARTCHAR char57838
ENCODING 57838
SWIDTH 1152 0
DWIDTH 12 0
BBX 12 13 0 -1
BITMAP
0000
1C00
2200
4100
4100
4100
2200
1D00
0080
0040
0020
0000
0000
ENDCHAR
STARTCHAR char57839
ENCODING 57839
SWIDTH 1152 0
DWIDTH 12 0
BBX 12 13 0 -1
BITMAP
0000
0000
7FE0
7FE0
4020
5020
4820
53A0
4020
7FE0
0000
0000
0000
ENDCHAR
STARTCHAR char57840
ENCODING 57840
SWIDTH 1152 0
DWIDTH 12 0
BBX 12 13 0 -1
BITMAP
0000
0660
0F60
19E0
30E0
6060
C030
CF30
4920
4920
79E0
0000
0000
ENDCHAR
STARTCHAR char57841
ENCODING 57841
SWIDTH 1152 0
DWIDTH 12 0
BBX 12 13 0 -1
BITMAP
0000
0000
0000
7FE0
0000
7FE0
0000
7FE0
0000
7FE0
0000
0000
0000
ENDCHAR
STARTCHAR char57842
ENCODING 57842
SWIDTH 1152 0
DWIDTH 12 0
BBX 12 13 0 -1
BITMAP
0000
0000
0000
5FE0
0000
5FE0
0000
5FE0
0000
5FE0
0000
0000
0000
ENDCHAR
STARTCHAR char57843
ENCODING 57843
SWIDTH 1152 0
DWIDTH 12 0
BBX 12 13 0 -1
BITMAP
0000
0000
0000
7F80
0000
7FC0
0000
7F80
0000
7FE0
0000
0000
0000
ENDCHAR
STARTCHAR char57844
ENCODING 57844
SWIDTH 1152 0
DWIDTH 12 0
BBX 12 13 0 -1
BITMAP
0000
0000
0000
1FE0
0000
3FE0
0000
1FE0
0000
7FE0
0000
0000
0000
ENDCHAR
STARTCHAR char57845
ENCODING 57845
SWIDTH 1152 0
DWIDTH 12 0
BBX 12 13 0 -1
BITMAP
0000
0000
0000
7F20
7F60
7FE0
7FE0
7FE0
7F60
7F20
0000
0000
0000
ENDCHAR
STARTCHAR char57846
ENCODING 57846
SWIDTH 1152 0
DWIDTH 12 0
BBX 12 13 0 -1
BITMAP
1F00
1F00
1B00
1B00
1F00
1F00
3F80
3F80
0400
0400
0400
0400
0000
ENDCHAR
STARTCHAR char57847
ENCODING 57847
SWIDTH 1152 0
DWIDTH 12 0
BBX 12 13 0 -1
BITMAP
3FE0
3E20
3E20
3E20
3E20
3E20
3E20
3E60
1EC0
0F80
0700
0200
0000
ENDCHAR
STARTCHAR char57848
ENCODING 57848
SWIDTH 1152 0
DWIDTH 12 0
BBX 12 13 0 -1
BITMAP
0000
0000
0000
0100
0300
0700
0F00
1F00
3F00
0000
0000
0000
0000
ENDCHAR
STARTCHAR char57849
ENCODING 57849
SWIDTH 1152 0
DWIDTH 12 0
BBX 12 13 0 -1
BITMAP
0000
0000
0000
2000
3000
3800
3C00
3E00
3F00
0000
0000
0000
0000
ENDCHAR
STARTCHAR char57850
ENCODING 57850
SWIDTH 1152 0
DWIDTH 12 0
BBX 12 13 0 -1
BITMAP
0000
0000
0000
3F00
3E00
3C00
3800
3000
2000
0000
0000
0000
0000
ENDCHAR
STARTCHAR char57851
ENCODING 57851
SWIDTH 1152 0
DWIDTH 12 0
BBX 12 13 0 -1
BITMAP
0000
0000
0000
3F00
1F00
0F00
0700
0300
0100
0000
0000
0000
0000
ENDCHAR
STARTCHAR char57852
ENCODING 57852
SWIDTH 1152 0
DWIDTH 12 0
BBX 12 13 0 -1
BITMAP
0000
0000
0000
0A00
0A00
1B00
0A00
1B00
0A00
0A00
0000
0000
0000
ENDCHAR
STARTCHAR char57853
ENCODING 57853
SWIDTH 1152 0
DWIDTH 12 0
BBX 12 13 0 -1
BITMAP
0000
0700
1FC0
1040
1040
1040
1040
1040
1040
1040
1FC0
0000
0000
ENDCHAR
STARTCHAR char57854
ENCODING 57854
SWIDTH 1152 0
DWIDTH 12 0
BBX 12 13 0 -1
BITMAP
0000
0700
1FC0
1040
1040
1040
1740
1740
1740
1040
1FC0
0000
0000
ENDCHAR
STARTCHAR char57855
ENCODING 57855
SWIDTH 1152 0
DWIDTH 12 0
BBX 12 13 0 -1
BITMAP
0000
0700
1FC0
1040
1740
1740
1740
1740
1740
1040
1FC0
0000
0000
ENDCHAR
STARTCHAR char57856
ENCODING 57856
SWIDTH 1152 0
DWIDTH 12 0
BBX 12 13 0 -1
BITMAP
0000
0700
1FC0
1AC0
1AC0
1040
1040
18C0
1DC0
1DC0
1FC0
0000
0000
ENDCHAR
STARTCHAR char57857
ENCODING 57857
SWIDTH 1152 0
DWIDTH 12 0
BBX 12 13 0 -1
BITMAP
0000
0700
1FC0
1EC0
1DC0
19C0
1040
1CC0
1DC0
1BC0
1FC0
0000
0000
ENDCHAR
STARTCHAR char57858
ENCODING 57858
SWIDTH 1152 0
DWIDTH 12 0
BBX 12 13 0 -1
BITMAP
0000
0000
0100
1300
0B00
1500
1A00
1D00
0680
0340
0100
0000
0000
ENDCHAR
STARTCHAR char57859
ENCODING 57859
SWIDTH 1152 0
DWIDTH 12 0
BBX 12 13 0 -1
BITMAP
0000
0000
0120
0340
0700
1F00
1F60
1F00
0700
0340
0120
0000
0000
ENDCHAR
STARTCHAR char57860
ENCODING 57860
SWIDTH 1152 0
DWIDTH 12 0
BBX 12 13 0 -1
BITMAP
0000
0000
0100
0300
0700
1F00
1F00
1F00
0700
0300
0100
0000
0000
ENDCHAR
STARTCHAR char57861
ENCODING 57861
SWIDTH 1152 0
DWIDTH 12 0
BBX 12 13 0 -1
BITMAP
0000
0000
0000
0F80
0F80
0880
0F80
0880
3B80
3B80
0000
0000
0000
ENDCHAR
STARTCHAR char57862
ENCODING 57862
SWIDTH 1152 0
DWIDTH 12 0
BBX 12 13 0 -1
BITMAP
0000
0000
0000
0000
1200
1B00
1F80
1B00
1200
0000
0000
0000
0000
ENDCHAR
STARTCHAR char57863
ENCODING 57863
SWIDTH 1152 0
DWIDTH 12 0
BBX 12 13 0 -1
BITMAP
0000
0000
0000
0000
0480
0D80
1F80
0D80
0480
0000
0000
0000
0000
ENDCHAR
STARTCHAR char57864
ENCODING 57864
SWIDTH 1152 0
DWIDTH 12 0
BBX 12 13 0 -1
BITMAP
0000
0000
0000
0000
0200
0700
0F80
0200
0700
0F80
0000
0000
0000
ENDCHAR
STARTCHAR char57865
ENCODING 57865
SWIDTH 1152 0
DWIDTH 12 0
BBX 12 13 0 -1
BITMAP
0000
0000
0000
0000
0F80
0700
0200
0F80
0700
0200
0000
0000
0000
ENDCHAR
STARTCHAR char57866
ENCODING 57866
SWIDTH 1152 0
DWIDTH 12 0
BBX 12 13 0 -1
BITMAP
0000
0000
0000
0000
2480
3680
3F80
3680
2480
0000
0000
0000
0000
ENDCHAR
STARTCHAR char57867
ENCODING 57867
SWIDTH 1152 0
DWIDTH 12 0
BBX 12 13 0 -1
BITMAP
0000
0000
0000
0000
2480
2D80
3F80
2D80
2480
0000
0000
0000
0000
ENDCHAR
STARTCHAR char57868
ENCODING 57868
SWIDTH 1152 0
DWIDTH 12 0
BBX 12 13 0 -1
BITMAP
0000
0000
0000
0000
1280
1A80
1E80
1A80
1280
0000
0000
0000
0000
ENDCHAR
STARTCHAR char57869
ENCODING 57869
SWIDTH 1152 0
DWIDTH 12 0
BBX 12 13 0 -1
BITMAP
0000
0000
0000
0480
0A80
0500
0200
0500
0A80
0900
0000
0000
0000
ENDCHAR
STARTCHAR char57870
ENCODING 57870
SWIDTH 1152 0
DWIDTH 12 0
BBX 12 13 0 -1
BITMAP
0000
0000
0000
0000
0E00
1F80
7E00
7E00
1F80
0E00
0000
0000
0000
ENDCHAR
STARTCHAR char57871
ENCODING 57871
SWIDTH 1152 0
DWIDTH 12 0
BBX 12 13 0 -1
BITMAP
0000
0000
0000
0030
0E30
1FB0
7E30
7E30
1F80
0E30
0030
0000
0000
ENDCHAR
STARTCHAR char57872
ENCODING 57872
SWIDTH 1152 0
DWIDTH 12 0
BBX 12 13 0 -1
BITMAP
0000
1C00
7F00
4100
4100
4100
4100
4100
4100
4100
4100
7F00
0000
ENDCHAR
STARTCHAR char57873
ENCODING 57873
SWIDTH 1152 0
DWIDTH 12 0
BBX 12 13 0 -1
BITMAP
0000
1C00
7F00
4130
4130
4130
4130
4130
4100
4130
4130
7F00
0000
ENDCHAR
STARTCHAR char57874
ENCODING 57874
SWIDTH 1152 0
DWIDTH 12 0
BBX 12 13 0 -1
BITMAP
0000
1C00
7F00
4130
4130
4130
4130
4130
5100
5930
4130
7F00
0000
ENDCHAR
STARTCHAR char57875
ENCODING 57875
SWIDTH 1152 0
DWIDTH 12 0
BBX 12 13 0 -1
BITMAP
0000
1C00
7F00
4100
4100
5100
5900
4D00
5500
5900
4100
7F00
0000
ENDCHAR
STARTCHAR char57876
ENCODING 57876
SWIDTH 1152 0
DWIDTH 12 0
BBX 12 13 0 -1
BITMAP
0000
1C00
7F00
4100
4D00
5500
5900
4D00
5500
5900
4100
7F00
0000
ENDCHAR
STARTCHAR char57877
ENCODING 57877
SWIDTH 1152 0
DWIDTH 12 0
BBX 12 13 0 -1
BITMAP
0000
0000
0200
0400
0C00
1800
1F00
3E00
0600
0C00
0800
1000
0000
ENDCHAR
STARTCHAR char57878
ENCODING 57878
SWIDTH 1152 0
DWIDTH 12 0
BBX 12 13 0 -1
BITMAP
0000
0000
0400
0800
1000
3000
7C00
1800
1000
2000
4000
0000
0000
ENDCHAR
STARTCHAR char57879
ENCODING 57879
SWIDTH 1152 0
DWIDTH 12 0
BBX 12 13 0 -1
BITMAP
0000
0000
0000
0000
0000
0000
0360
01C0
1880
19C0
0360
0000
0000
ENDCHAR
STARTCHAR char57880
ENCODING 57880
SWIDTH 1152 0
DWIDTH 12 0
BBX 12 13 0 -1
BITMAP
0000
0000
0000
0000
0000
0000
0780
0840
0300
0300
0000
0000
0000
ENDCHAR
STARTCHAR char57881
ENCODING 57881
SWIDTH 1152 0
DWIDTH 12 0
BBX 12 13 0 -1
BITMAP
0000
0000
0000
0000
0FC0
1020
0780
0840
0300
0300
0000
0000
0000
ENDCHAR
STARTCHAR char57882
ENCODING 57882
SWIDTH 1152 0
DWIDTH 12 0
BBX 12 13 0 -1
BITMAP
0000
0000
1FE0
2010
0FC0
1020
0780
0840
0300
0300
0000
0000
0000
ENDCHAR
STARTCHAR char57883
ENCODING 57883
SWIDTH 1152 0
DWIDTH 12 0
BBX 12 13 0 -1
BITMAP
0000
0000
0000
4000
4000
0000
4360
41C0
0080
41C0
4360
0000
0000
ENDCHAR
STARTCHAR char57884
ENCODING 57884
SWIDTH 1152 0
DWIDTH 12 0
BBX 12 13 0 -1
BITMAP
0000
0000
0000
4000
4000
0000
4000
4000
0000
7000
7000
0000
0000
ENDCHAR
STARTCHAR char57885
ENCODING 57885
SWIDTH 1152 0
DWIDTH 12 0
BBX 12 13 0 -1
BITMAP
0000
0000
0000
4000
4000
0000
7E00
7E00
0000
7000
7000
0000
0000
ENDCHAR
STARTCHAR char57886
ENCODING 57886
SWIDTH 1152 0
DWIDTH 12 0
BBX 12 13 0 -1
BITMAP
0000
0000
0000
7FC0
7FC0
0000
7E00
7E00
0000
7000
7000
0000
0000
ENDCHAR
STARTCHAR char57887
ENCODING 57887
SWIDTH 1152 0
DWIDTH 12 0
BBX 12 13 0 -1
BITMAP
0000
0000
0000
0000
0000
0000
0000
0000
0000
0000
36C0
0000
0000
ENDCHAR
STARTCHAR char57888
ENCODING 57888
SWIDTH 1152 0
DWIDTH 12 0
BBX 12 13 0 -1
BITMAP
0000
0000
0000
0000
0000
0000
0000
0000
3000
3000
36C0
0000
0000
ENDCHAR
STARTCHAR char57889
ENCODING 57889
SWIDTH 1152 0
DWIDTH 12 0
BBX 12 13 0 -1
BITMAP
0000
0000
0000
0000
0000
0600
0600
0600
3600
3600
36C0
0000
0000
ENDCHAR
STARTCHAR char57890
ENCODING 57890
SWIDTH 1152 0
DWIDTH 12 0
BBX 12 13 0 -1
BITMAP
0000
0000
00C0
00C0
00C0
06C0
06C0
06C0
36C0
36C0
36C0
0000
0000
ENDCHAR
STARTCHAR char57891
ENCODING 57891
SWIDTH 1152 0
DWIDTH 12 0
BBX 12 13 0 -1
BITMAP
0000
0000
1FC0
2020
2420
2420
2AA0
2120
2120
2020
1FC0
0000
0000
ENDCHAR
STARTCHAR char57892
ENCODING 57892
SWIDTH 1152 0
DWIDTH 12 0
BBX 12 13 0 -1
BITMAP
0000
0000
1FC0
3BE0
3BE0
3BE0
2520
3EE0
3EE0
3EE0
1FC0
0000
0000
ENDCHAR
STARTCHAR char57893
ENCODING 57893
SWIDTH 1152 0
DWIDTH 12 0
BBX 12 13 0 -1
BITMAP
0000
0000
1040
3FE0
3FE0
2020
2AA0
2020
2AA0
2020
3FE0
0000
0000
ENDCHAR
STARTCHAR char57894
ENCODING 57894
SWIDTH 1152 0
DWIDTH 12 0
BBX 12 13 0 -1
BITMAP
0000
0000
1040
3FE0
3FE0
2020
2020
2020
2020
2020
3FE0
0000
0000
ENDCHAR
STARTCHAR char57895
ENCODING 57895
SWIDTH 1152 0
DWIDTH 12 0
BBX 12 13 0 -1
BITMAP
0000
0000
4100
FFB0
FFB0
80B0
80B0
80B0
8080
80B0
FFB0
0000
0000
ENDCHAR
STARTCHAR char57896
ENCODING 57896
SWIDTH 1152 0
DWIDTH 12 0
BBX 12 13 0 -1
BITMAP
0000
0000
0000
3FE0
3060
28A0
2520
2AA0
3060
3FE0
0000
0000
0000
ENDCHAR
STARTCHAR char57897
ENCODING 57897
SWIDTH 1152 0
DWIDTH 12 0
BBX 12 13 0 -1
BITMAP
0000
0000
0000
3FE0
2FA0
3760
3AE0
3560
2FA0
3FE0
0000
0000
0000
ENDCHAR
STARTCHAR char57898
ENCODING 57898
SWIDTH 1152 0
DWIDTH 12 0
BBX 12 13 0 -1
BITMAP
0000
0000
0040
00E0
01C0
0380
0700
0E00
1C00
1800
2000
0000
0000
ENDCHAR
STARTCHAR char57899
ENCODING 57899
SWIDTH 1152 0
DWIDTH 12 0
BBX 12 13 0 -1
BITMAP
0000
0000
0000
0700
0F80
1FC0
1FC0
0D80
0000
0000
0000
0000
0000
ENDCHAR
STARTCHAR char57900
ENCODING 57900
SWIDTH 1152 0
DWIDTH 12 0
BBX 12 13 0 -1
BITMAP
0000
0000
0000
0700
0F80
1FC0
1FC0
0D80
0200
0600
0400
0000
0000
ENDCHAR
STARTCHAR char57901
ENCODING 57901
SWIDTH 1152 0
DWIDTH 12 0
BBX 12 13 0 -1
BITMAP
0000
0000
0000
0700
0F80
1FC0
1FC0
0D80
0000
0A80
1500
0000
0000
ENDCHAR
STARTCHAR char57902
ENCODING 57902
SWIDTH 1152 0
DWIDTH 12 0
BBX 12 13 0 -1
BITMAP
0000
0000
0000
0700
0F80
1FC0
1FC0
0D80
0000
1200
0500
0240
0000
ENDCHAR
STARTCHAR char57903
ENCODING 57903
SWIDTH 1152 0
DWIDTH 12 0
BBX 12 13 0 -1
BITMAP
0000
0000
0000
0700
0F80
1FC0
1FC0
0D80
0200
0880
0200
0880
0000
ENDCHAR
STARTCHAR char57904
ENCODING 57904
SWIDTH 1152 0
DWIDTH 12 0
BBX 12 13 0 -1
BITMAP
0000
0000
0000
0700
0F80
1FC0
1FC0
0D80
0000
0880
0200
0000
0000
ENDCHAR
STARTCHAR char57905
ENCODING 57905
SWIDTH 1152 0
DWIDTH 12 0
BBX 12 13 0 -1
BITMAP
0000
0140
0580
0E60
1C40
1E60
1F80
0B40
0000
0000
0000
0000
0000
ENDCHAR
STARTCHAR char57906
ENCODING 57906
SWIDTH 1152 0
DWIDTH 12 0
BBX 12 13 0 -1
BITMAP
0100
0200
0200
0B20
1DC0
1E00
1F80
0B00
0000
0000
0000
0000
0000
ENDCHAR
STARTCHAR char57907
ENCODING 57907
SWIDTH 1152 0
DWIDTH 12 0
BBX 12 13 0 -1
BITMAP
0000
0000
0000
0800
1000
1000
1900
0E00
0000
0000
0000
0000
0000
ENDCHAR
STARTCHAR char57908
ENCODING 57908
SWIDTH 1152 0
DWIDTH 12 0
BBX 12 13 0 -1
BITMAP
0000
0000
1240
0F80
0880
0880
0880
0F80
1240
0000
0000
0000
0000
ENDCHAR
STARTCHAR char57909
ENCODING 57909
SWIDTH 1152 0
DWIDTH 12 0
BBX 12 13 0 -1
BITMAP
0000
0000
0300
1F00
0060
1FE0
0000
1F80
0180
0000
0000
0000
0000
ENDCHAR
STARTCHAR char57910
ENCODING 57910
SWIDTH 1152 0
DWIDTH 12 0
BBX 12 13 0 -1
BITMAP
0000
0000
0000
7FC0
4040
4060
4060
4060
4040
7FC0
0000
0000
0000
ENDCHAR
STARTCHAR char57911
ENCODING 57911
SWIDTH 1152 0
DWIDTH 12 0
BBX 12 13 0 -1
BITMAP
0000
0000
0000
7FC0
4040
5C60
5C60
5C60
4040
7FC0
0000
0000
0000
ENDCHAR
STARTCHAR char57912
ENCODING 57912
SWIDTH 1152 0
DWIDTH 12 0
BBX 12 13 0 -1
BITMAP
0000
0000
0000
7FC0
4040
5F60
5F60
5F60
4040
7FC0
0000
0000
0000
ENDCHAR
STARTCHAR char57913
ENCODING 57913
SWIDTH 1152 0
DWIDTH 12 0
BBX 12 13 0 -1
BITMAP
0000
0000
0000
7FC0
79C0
7060
41E0
7060
79C0
7FC0
0000
0000
0000
ENDCHAR
STARTCHAR char57914
ENCODING 57914
SWIDTH 1152 0
DWIDTH 12 0
BBX 12 13 0 -1
BITMAP
0000
0000
0000
7FC0
7BC0
7360
60E0
59E0
7BC0
7FC0
0000
0000
0000
ENDCHAR
STARTCHAR char57915
ENCODING 57915
SWIDTH 1152 0
DWIDTH 12 0
BBX 12 13 0 -1
BITMAP
0000
0000
0000
3FE0
2020
6020
6020
6020
2020
3FE0
0000
0000
0000
ENDCHAR
STARTCHAR char57916
ENCODING 57916
SWIDTH 1152 0
DWIDTH 12 0
BBX 12 13 0 -1
BITMAP
0000
0000
0000
3FE0
2020
63A0
63A0
63A0
2020
3FE0
0000
0000
0000
ENDCHAR
STARTCHAR char57917
ENCODING 57917
SWIDTH 1152 0
DWIDTH 12 0
BBX 12 13 0 -1
BITMAP
0000
0000
0000
3FE0
2020
6FA0
6FA0
6FA0
2020
3FE0
0000
0000
0000
ENDCHAR
STARTCHAR char57918
ENCODING 57918
SWIDTH 1152 0
DWIDTH 12 0
BBX 12 13 0 -1
BITMAP
0000
0000
0000
3FE0
39E0
60E0
7820
60E0
39E0
3FE0
0000
0000
0000
ENDCHAR
STARTCHAR char57919
ENCODING 57919
SWIDTH 1152 0
DWIDTH 12 0
BBX 12 13 0 -1
BITMAP
0000
0000
0000
3FE0
3DE0
6CE0
7060
79A0
3DE0
3FE0
0000
0000
0000
ENDCHAR
STARTCHAR char57920
ENCODING 57920
SWIDTH 1152 0
DWIDTH 12 0
BBX 12 13 0 -1
BITMAP
0000
0000
0000
0000
1000
1000
F5F0
9550
FF50
0000
0000
0000
0000
ENDCHAR
STARTCHAR char57921
ENCODING 57921
SWIDTH 1152 0
DWIDTH 12 0
BBX 12 13 0 -1
BITMAP
0000
0000
1000
1000
1000
F5F0
9550
9550
FF50
0000
0000
0000
0000
ENDCHAR
STARTCHAR char57922
ENCODING 57922
SWIDTH 1152 0
DWIDTH 12 0
BBX 12 13 0 -1
BITMAP
0000
0000
0000
FFE0
8030
8010
8010
8010
8030
FFE0
0000
0000
0000
ENDCHAR
STARTCHAR char57923
ENCODING 57923
SWIDTH 1152 0
DWIDTH 12 0
BBX 12 13 0 -1
BITMAP
0000
0000
0000
FFE0
8030
C010
C010
C010
8030
FFE0
0000
0000
0000
ENDCHAR
STARTCHAR char57924
ENCODING 57924
SWIDTH 1152 0
DWIDTH 12 0
BBX 12 13 0 -1
BITMAP
0000
0000
0000
FFE0
8030
E010
E010
E010
8030
FFE0
0000
0000
0000
ENDCHAR
STARTCHAR char57925
ENCODING 57925
SWIDTH 1152 0
DWIDTH 12 0
BBX 12 13 0 -1
BITMAP
0000
0000
0000
FFE0
8030
F010
F010
F010
8030
FFE0
0000
0000
0000
ENDCHAR
STARTCHAR char57926
ENCODING 57926
SWIDTH 1152 0
DWIDTH 12 0
BBX 12 13 0 -1
BITMAP
0000
0000
0000
FFE0
8030
F810
F810
F810
8030
FFE0
0000
0000
0000
ENDCHAR
STARTCHAR char57927
ENCODING 57927
SWIDTH 1152 0
DWIDTH 12 0
BBX 12 13 0 -1
BITMAP
0000
0000
0000
FFE0
8030
FC10
FC10
FC10
8030
FFE0
0000
0000
0000
ENDCHAR
STARTCHAR char57928
ENCODING 57928
SWIDTH 1152 0
DWIDTH 12 0
BBX 12 13 0 -1
BITMAP
0000
0000
0000
FFE0
8030
FE10
FE10
FE10
8030
FFE0
0000
0000
0000
ENDCHAR
STARTCHAR char57929
ENCODING 57929
SWIDTH 1152 0
DWIDTH 12 0
BBX 12 13 0 -1
BITMAP
0000
0000
0000
FFE0
8030
FF10
FF10
FF10
8030
FFE0
0000
0000
0000
ENDCHAR
STARTCHAR char57930
ENCODING 57930
SWIDTH 1152 0
DWIDTH 12 0
BBX 12 13 0 -1
BITMAP
0000
0000
0000
FFE0
8030
FF90
FF90
FF90
8030
FFE0
0000
0000
0000
ENDCHAR
STARTCHAR char57931
ENCODING 57931
SWIDTH 1152 0
DWIDTH 12 0
BBX 12 13 0 -1
BITMAP
0000
0000
0000
FFE0
8030
FFD0
FFD0
FFD0
8030
FFE0
0000
0000
0000
ENDCHAR
STARTCHAR char57932
ENCODING 57932
SWIDTH 1152 0
DWIDTH 12 0
BBX 12 13 0 -1
BITMAP
0000
0000
0000
FFE0
C030
C010
C010
C010
C030
FFE0
0000
0000
0000
ENDCHAR
STARTCHAR char57933
ENCODING 57933
SWIDTH 1152 0
DWIDTH 12 0
BBX 12 13 0 -1
BITMAP
0000
0000
0000
FFE0
E030
E010
E010
E010
E030
FFE0
0000
0000
0000
ENDCHAR
STARTCHAR char57934
ENCODING 57934
SWIDTH 1152 0
DWIDTH 12 0
BBX 12 13 0 -1
BITMAP
0000
0000
0000
FFE0
F030
F010
F010
F010
F030
FFE0
0000
0000
0000
ENDCHAR
STARTCHAR char57935
ENCODING 57935
SWIDTH 1152 0
DWIDTH 12 0
BBX 12 13 0 -1
BITMAP
0000
0000
0000
FFE0
F830
F810
F810
F810
F830
FFE0
0000
0000
0000
ENDCHAR
STARTCHAR char57936
ENCODING 57936
SWIDTH 1152 0
DWIDTH 12 0
BBX 12 13 0 -1
BITMAP
0000
0000
0000
FFE0
FC30
FC10
FC10
FC10
FC30
FFE0
0000
0000
0000
ENDCHAR
STARTCHAR char57937
ENCODING 57937
SWIDTH 1152 0
DWIDTH 12 0
BBX 12 13 0 -1
BITMAP
0000
0000
0000
FFE0
FE30
FE10
FE10
FE10
FE30
FFE0
0000
0000
0000
ENDCHAR
STARTCHAR char57938
ENCODING 57938
SWIDTH 1152 0
DWIDTH 12 0
BBX 12 13 0 -1
BITMAP
0000
0000
0000
FFE0
FF30
FF10
FF10
FF10
FF30
FFE0
0000
0000
0000
ENDCHAR
STARTCHAR char57939
ENCODING 57939
SWIDTH 1152 0
DWIDTH 12 0
BBX 12 13 0 -1
BITMAP
0000
0000
0000
FFE0
FFB0
FF90
FF90
FF90
FFB0
FFE0
0000
0000
0000
ENDCHAR
STARTCHAR char57940
ENCODING 57940
SWIDTH 1152 0
DWIDTH 12 0
BBX 12 13 0 -1
BITMAP
0000
0000
0000
FFE0
FFF0
FFD0
FFD0
FFD0
FFF0
FFE0
0000
0000
0000
ENDCHAR
STARTCHAR char57941
ENCODING 57941
SWIDTH 1152 0
DWIDTH 12 0
BBX 12 13 0 -1
BITMAP
0000
0000
0000
7FF0
4010
4010
4010
4010
4010
7FF0
0000
0000
0000
ENDCHAR
STARTCHAR char57942
ENCODING 57942
SWIDTH 1152 0
DWIDTH 12 0
BBX 12 13 0 -1
BITMAP
0000
0000
0000
7FF0
4010
4010
7FF0
4210
4210
7FF0
0000
0000
0000
ENDCHAR
STARTCHAR char57943
ENCODING 57943
SWIDTH 1152 0
DWIDTH 12 0
BBX 12 13 0 -1
BITMAP
0000
0000
0000
7FF0
4210
4210
43F0
4210
4210
7FF0
0000
0000
0000
ENDCHAR
STARTCHAR char57944
ENCODING 57944
SWIDTH 1152 0
DWIDTH 12 0
BBX 12 13 0 -1
BITMAP
0000
0000
0000
0000
0000
0000
0000
0000
0000
4000
0000
0000
0000
ENDCHAR
STARTCHAR char57945
ENCODING 57945
SWIDTH 1152 0
DWIDTH 12 0
BBX 12 13 0 -1
BITMAP
0000
0000
0000
0000
0000
0000
0000
0000
1000
5000
0000
0000
0000
ENDCHAR
STARTCHAR char57946
ENCODING 57946
SWIDTH 1152 0
DWIDTH 12 0
BBX 12 13 0 -1
BITMAP
0000
0000
0000
0000
0000
0000
0000
0400
1400
5400
0000
0000
0000
ENDCHAR
STARTCHAR char57947
ENCODING 57947
SWIDTH 1152 0
DWIDTH 12 0
BBX 12 13 0 -1
BITMAP
0000
0000
0000
0000
0000
0000
0100
0500
1500
5500
0000
0000
0000
ENDCHAR
STARTCHAR char57948
ENCODING 57948
SWIDTH 1152 0
DWIDTH 12 0
BBX 12 13 0 -1
BITMAP
0000
0000
0000
0000
0000
0040
0140
0540
1540
5540
0000
0000
0000
ENDCHAR
STARTCHAR char57949
ENCODING 57949
SWIDTH 1152 0
DWIDTH 12 0
BBX 12 13 0 -1
BITMAP
0000
0000
0000
0000
0000
0000
0000
0000
0000
5540
0000
0000
0000
ENDCHAR
STARTCHAR char57950
ENCODING 57950
SWIDTH 1152 0
DWIDTH 12 0
BBX 12 13 0 -1
BITMAP
0000
0000
0000
0000
0000
0000
0000
0000
1000
5540
0000
0000
0000
ENDCHAR
STARTCHAR char57951
ENCODING 57951
SWIDTH 1152 0
DWIDTH 12 0
BBX 12 13 0 -1
BITMAP
0000
0000
0000
0000
0000
0000
0000
0400
1400
5540
0000
0000
0000
ENDCHAR
STARTCHAR char57952
ENCODING 57952
SWIDTH 1152 0
DWIDTH 12 0
BBX 12 13 0 -1
BITMAP
0000
0000
0000
0000
0000
0000
0100
0500
1500
5540
0000
0000
0000
ENDCHAR
STARTCHAR char57953
ENCODING 57953
SWIDTH 1152 0
DWIDTH 12 0
BBX 12 13 0 -1
BITMAP
0000
0000
0000
0000
0000
0040
0140
0540
1540
5540
0000
0000
0000
ENDCHAR
STARTCHAR char57954
ENCODING 57954
SWIDTH 1152 0
DWIDTH 12 0
BBX 12 13 0 -1
BITMAP
0000
2A80
FFF0
AA90
8010
AAB0
8010
AAB0
8010
FFF0
0000
0000
0000
ENDCHAR
STARTCHAR char57955
ENCODING 57955
SWIDTH 1152 0
DWIDTH 12 0
BBX 12 13 0 -1
BITMAP
0000
0000
0000
7FE0
50A0
70E0
5FA0
70E0
50A0
7FE0
0000
0000
0000
ENDCHAR
STARTCHAR char57956
ENCODING 57956
SWIDTH 1152 0
DWIDTH 12 0
BBX 12 13 0 -1
BITMAP
0000
0000
0000
0000
3800
3FC0
3FC0
3FC0
3FC0
3FC0
0000
0000
0000
ENDCHAR
STARTCHAR char57957
ENCODING 57957
SWIDTH 1152 0
DWIDTH 12 0
BBX 12 13 0 -1
BITMAP
0000
0000
3FE0
3FE0
2AA0
3FE0
2AA0
3FE0
2AA0
3FE0
0000
0000
0000
ENDCHAR
STARTCHAR char57958
ENCODING 57958
SWIDTH 1152 0
DWIDTH 12 0
BBX 12 13 0 -1
BITMAP
0000
2A80
7FE0
6AA0
4020
5560
4020
5560
4020
7FE0
0000
0000
0000
ENDCHAR
STARTCHAR char57959
ENCODING 57959
SWIDTH 1152 0
DWIDTH 12 0
BBX 12 13 0 -1
BITMAP
0000
0000
7FE0
7FE0
4020
5560
4020
5560
4020
7FE0
0000
0000
0000
ENDCHAR
STARTCHAR char57960
ENCODING 57960
SWIDTH 1152 0
DWIDTH 12 0
BBX 12 13 0 -1
BITMAP
0000
0000
3FC0
7FE0
4020
5FA0
4020
5FA0
4020
7FE0
0000
0000
0000
ENDCHAR
STARTCHAR char57961
ENCODING 57961
SWIDTH 1152 0
DWIDTH 12 0
BBX 12 13 0 -1
BITMAP
0000
0000
7FE0
7FE0
4020
57A0
4020
57A0
4020
7FE0
0000
0000
0000
ENDCHAR
STARTCHAR char57962
ENCODING 57962
SWIDTH 1152 0
DWIDTH 12 0
BBX 12 13 0 -1
BITMAP
0000
0000
1040
2FA0
3FE0
2AA0
3FE0
2AA0
3FE0
2AA0
3FE0
0000
0000
ENDCHAR
STARTCHAR char57963
ENCODING 57963
SWIDTH 1152 0
DWIDTH 12 0
BBX 12 13 0 -1
BITMAP
0000
0000
3DC0
3DC0
3DC0
3DC0
3DC0
3DC0
3DC0
3DC0
0000
0000
0000
ENDCHAR
STARTCHAR char57964
ENCODING 57964
SWIDTH 1152 0
DWIDTH 12 0
BBX 12 13 0 -1
BITMAP
0000
3FE0
3FE0
2220
2220
2220
2220
2220
2220
3FE0
0000
0000
0000
ENDCHAR
STARTCHAR char57965
ENCODING 57965
SWIDTH 1152 0
DWIDTH 12 0
BBX 12 13 0 -1
BITMAP
0000
0000
0F00
1980
3BC0
2BC0
2940
3940
1C80
0F00
0000
0000
0000
ENDCHAR
STARTCHAR char57966
ENCODING 57966
SWIDTH 1152 0
DWIDTH 12 0
BBX 12 13 0 -1
BITMAP
0000
0000
0700
0E80
0980
0880
0500
0700
0700
0200
0000
0000
0000
ENDCHAR
STARTCHAR char57967
ENCODING 57967
SWIDTH 1152 0
DWIDTH 12 0
BBX 12 13 0 -1
BITMAP
0000
0000
FFF0
AA10
8050
EAD0
8010
AF50
8010
FFF0
0000
0000
0000
ENDCHAR
STARTCHAR char57968
ENCODING 57968
SWIDTH 1152 0
DWIDTH 12 0
BBX 12 13 0 -1
BITMAP
0000
0000
0800
0800
0800
0800
0800
3800
3800
0000
0000
0000
0000
ENDCHAR
STARTCHAR char57969
ENCODING 57969
SWIDTH 1152 0
DWIDTH 12 0
BBX 12 13 0 -1
BITMAP
0000
0000
0C00
0A00
0A00
0800
0800
3800
3800
0000
0000
0000
0000
ENDCHAR
STARTCHAR char57970
ENCODING 57970
SWIDTH 1152 0
DWIDTH 12 0
BBX 12 13 0 -1
BITMAP
0000
0000
1E00
1200
1200
1200
1200
3600
3600
0000
0000
0000
0000
ENDCHAR
STARTCHAR char57971
ENCODING 57971
SWIDTH 1152 0
DWIDTH 12 0
BBX 12 13 0 -1
BITMAP
0000
0000
1E00
1E00
1200
1E00
1200
3600
3600
0000
0000
0000
0000
ENDCHAR
STARTCHAR char57972
ENCODING 57972
SWIDTH 1152 0
DWIDTH 12 0
BBX 12 13 0 -1
BITMAP
0000
0000
2000
2000
2000
2000
3800
2800
3000
0000
0000
0000
0000
ENDCHAR
STARTCHAR char57973
ENCODING 57973
SWIDTH 1152 0
DWIDTH 12 0
BBX 12 13 0 -1
BITMAP
0000
0000
2000
2400
2C00
3400
2C00
3400
2400
0400
0000
0000
0000
ENDCHAR
STARTCHAR char57974
ENCODING 57974
SWIDTH 1152 0
DWIDTH 12 0
BBX 12 13 0 -1
BITMAP
0000
0000
0400
1600
1C00
3400
1600
1C00
3400
1000
0000
0000
0000
ENDCHAR
STARTCHAR char57975
ENCODING 57975
SWIDTH 1152 0
DWIDTH 12 0
BBX 12 13 0 -1
BITMAP
0000
0000
0000
0000
FFF0
FFF0
FFF0
FFF0
FFF0
FFF0
0000
0000
0000
ENDCHAR
STARTCHAR char57976
ENCODING 57976
SWIDTH 1152 0
DWIDTH 12 0
BBX 12 13 0 -1
BITMAP
0000
0000
0000
0000
FFF0
8010
8010
8010
8010
FFF0
0000
0000
0000
ENDCHAR
STARTCHAR char57977
ENCODING 57977
SWIDTH 1152 0
DWIDTH 12 0
BBX 12 13 0 -1
BITMAP
0000
0000
0000
0000
0200
0700
0700
0200
0000
0000
0000
0000
0000
ENDCHAR
ENDFONT
